<?xml version="1.0" encoding="utf-8" standalone="no"?>
<!DOCTYPE svg PUBLIC "-//W3C//DTD SVG 1.1//EN"
  "http://www.w3.org/Graphics/SVG/1.1/DTD/svg11.dtd">
<svg xmlns:xlink="http://www.w3.org/1999/xlink" width="864pt" height="360pt" viewBox="0 0 864 360" xmlns="http://www.w3.org/2000/svg" version="1.1">
 <metadata>
  <rdf:RDF xmlns:dc="http://purl.org/dc/elements/1.1/" xmlns:cc="http://creativecommons.org/ns#" xmlns:rdf="http://www.w3.org/1999/02/22-rdf-syntax-ns#">
   <cc:Work>
    <dc:type rdf:resource="http://purl.org/dc/dcmitype/StillImage"/>
    <dc:date>2023-03-28T15:50:05.702015</dc:date>
    <dc:format>image/svg+xml</dc:format>
    <dc:creator>
     <cc:Agent>
      <dc:title>Matplotlib v3.7.1, https://matplotlib.org/</dc:title>
     </cc:Agent>
    </dc:creator>
   </cc:Work>
  </rdf:RDF>
 </metadata>
 <defs>
  <style type="text/css">*{stroke-linejoin: round; stroke-linecap: butt}</style>
 </defs>
 <g id="figure_1">
  <g id="patch_1">
   <path d="M 0 360 
L 864 360 
L 864 0 
L 0 0 
z
" style="fill: #ffffff"/>
  </g>
  <g id="axes_1">
   <g id="patch_2">
    <path d="M 108 320.4 
L 304.941176 320.4 
L 304.941176 43.2 
L 108 43.2 
z
" style="fill: #ffffff"/>
   </g>
   <g id="patch_3">
    <path d="M 116.951872 320.4 
L 125.903743 320.4 
L 125.903743 320.4 
L 116.951872 320.4 
z
" clip-path="url(#pda4de011d4)" style="fill: #1f77b4"/>
   </g>
   <g id="patch_4">
    <path d="M 125.903743 320.4 
L 134.855615 320.4 
L 134.855615 56.4 
L 125.903743 56.4 
z
" clip-path="url(#pda4de011d4)" style="fill: #1f77b4"/>
   </g>
   <g id="patch_5">
    <path d="M 134.855615 320.4 
L 143.807487 320.4 
L 143.807487 168.092308 
L 134.855615 168.092308 
z
" clip-path="url(#pda4de011d4)" style="fill: #1f77b4"/>
   </g>
   <g id="patch_6">
    <path d="M 143.807487 320.4 
L 152.759358 320.4 
L 152.759358 320.4 
L 143.807487 320.4 
z
" clip-path="url(#pda4de011d4)" style="fill: #1f77b4"/>
   </g>
   <g id="patch_7">
    <path d="M 152.759358 320.4 
L 161.71123 320.4 
L 161.71123 229.015385 
L 152.759358 229.015385 
z
" clip-path="url(#pda4de011d4)" style="fill: #1f77b4"/>
   </g>
   <g id="patch_8">
    <path d="M 161.71123 320.4 
L 170.663102 320.4 
L 170.663102 229.015385 
L 161.71123 229.015385 
z
" clip-path="url(#pda4de011d4)" style="fill: #1f77b4"/>
   </g>
   <g id="patch_9">
    <path d="M 170.663102 320.4 
L 179.614973 320.4 
L 179.614973 320.4 
L 170.663102 320.4 
z
" clip-path="url(#pda4de011d4)" style="fill: #1f77b4"/>
   </g>
   <g id="patch_10">
    <path d="M 179.614973 320.4 
L 188.566845 320.4 
L 188.566845 229.015385 
L 179.614973 229.015385 
z
" clip-path="url(#pda4de011d4)" style="fill: #1f77b4"/>
   </g>
   <g id="patch_11">
    <path d="M 188.566845 320.4 
L 197.518717 320.4 
L 197.518717 279.784615 
L 188.566845 279.784615 
z
" clip-path="url(#pda4de011d4)" style="fill: #1f77b4"/>
   </g>
   <g id="patch_12">
    <path d="M 197.518717 320.4 
L 206.470588 320.4 
L 206.470588 320.4 
L 197.518717 320.4 
z
" clip-path="url(#pda4de011d4)" style="fill: #1f77b4"/>
   </g>
   <g id="patch_13">
    <path d="M 206.470588 320.4 
L 215.42246 320.4 
L 215.42246 310.246154 
L 206.470588 310.246154 
z
" clip-path="url(#pda4de011d4)" style="fill: #1f77b4"/>
   </g>
   <g id="patch_14">
    <path d="M 215.42246 320.4 
L 224.374332 320.4 
L 224.374332 279.784615 
L 215.42246 279.784615 
z
" clip-path="url(#pda4de011d4)" style="fill: #1f77b4"/>
   </g>
   <g id="patch_15">
    <path d="M 224.374332 320.4 
L 233.326203 320.4 
L 233.326203 320.4 
L 224.374332 320.4 
z
" clip-path="url(#pda4de011d4)" style="fill: #1f77b4"/>
   </g>
   <g id="patch_16">
    <path d="M 233.326203 320.4 
L 242.278075 320.4 
L 242.278075 310.246154 
L 233.326203 310.246154 
z
" clip-path="url(#pda4de011d4)" style="fill: #1f77b4"/>
   </g>
   <g id="patch_17">
    <path d="M 242.278075 320.4 
L 251.229947 320.4 
L 251.229947 289.938462 
L 242.278075 289.938462 
z
" clip-path="url(#pda4de011d4)" style="fill: #1f77b4"/>
   </g>
   <g id="patch_18">
    <path d="M 251.229947 320.4 
L 260.181818 320.4 
L 260.181818 320.4 
L 251.229947 320.4 
z
" clip-path="url(#pda4de011d4)" style="fill: #1f77b4"/>
   </g>
   <g id="patch_19">
    <path d="M 260.181818 320.4 
L 269.13369 320.4 
L 269.13369 320.4 
L 260.181818 320.4 
z
" clip-path="url(#pda4de011d4)" style="fill: #1f77b4"/>
   </g>
   <g id="patch_20">
    <path d="M 269.13369 320.4 
L 278.085561 320.4 
L 278.085561 310.246154 
L 269.13369 310.246154 
z
" clip-path="url(#pda4de011d4)" style="fill: #1f77b4"/>
   </g>
   <g id="patch_21">
    <path d="M 278.085561 320.4 
L 287.037433 320.4 
L 287.037433 320.4 
L 278.085561 320.4 
z
" clip-path="url(#pda4de011d4)" style="fill: #1f77b4"/>
   </g>
   <g id="patch_22">
    <path d="M 287.037433 320.4 
L 295.989305 320.4 
L 295.989305 310.246154 
L 287.037433 310.246154 
z
" clip-path="url(#pda4de011d4)" style="fill: #1f77b4"/>
   </g>
   <g id="matplotlib.axis_1">
    <g id="xtick_1">
     <g id="line2d_1">
      <defs>
       <path id="m6268c4303b" d="M 0 0 
L 0 3.5 
" style="stroke: #000000; stroke-width: 0.8"/>
      </defs>
      <g>
       <use xlink:href="#m6268c4303b" x="141.812828" y="320.4" style="stroke: #000000; stroke-width: 0.8"/>
      </g>
     </g>
     <g id="text_1">
      <!-- 20 -->
      <g transform="translate(135.450328 334.998438) scale(0.1 -0.1)">
       <defs>
        <path id="DejaVuSans-32" d="M 1228 531 
L 3431 531 
L 3431 0 
L 469 0 
L 469 531 
Q 828 903 1448 1529 
Q 2069 2156 2228 2338 
Q 2531 2678 2651 2914 
Q 2772 3150 2772 3378 
Q 2772 3750 2511 3984 
Q 2250 4219 1831 4219 
Q 1534 4219 1204 4116 
Q 875 4013 500 3803 
L 500 4441 
Q 881 4594 1212 4672 
Q 1544 4750 1819 4750 
Q 2544 4750 2975 4387 
Q 3406 4025 3406 3419 
Q 3406 3131 3298 2873 
Q 3191 2616 2906 2266 
Q 2828 2175 2409 1742 
Q 1991 1309 1228 531 
z
" transform="scale(0.015625)"/>
        <path id="DejaVuSans-30" d="M 2034 4250 
Q 1547 4250 1301 3770 
Q 1056 3291 1056 2328 
Q 1056 1369 1301 889 
Q 1547 409 2034 409 
Q 2525 409 2770 889 
Q 3016 1369 3016 2328 
Q 3016 3291 2770 3770 
Q 2525 4250 2034 4250 
z
M 2034 4750 
Q 2819 4750 3233 4129 
Q 3647 3509 3647 2328 
Q 3647 1150 3233 529 
Q 2819 -91 2034 -91 
Q 1250 -91 836 529 
Q 422 1150 422 2328 
Q 422 3509 836 4129 
Q 1250 4750 2034 4750 
z
" transform="scale(0.015625)"/>
       </defs>
       <use xlink:href="#DejaVuSans-32"/>
       <use xlink:href="#DejaVuSans-30" x="63.623047"/>
      </g>
     </g>
    </g>
    <g id="xtick_2">
     <g id="line2d_2">
      <g>
       <use xlink:href="#m6268c4303b" x="180.356948" y="320.4" style="stroke: #000000; stroke-width: 0.8"/>
      </g>
     </g>
     <g id="text_2">
      <!-- 40 -->
      <g transform="translate(173.994448 334.998438) scale(0.1 -0.1)">
       <defs>
        <path id="DejaVuSans-34" d="M 2419 4116 
L 825 1625 
L 2419 1625 
L 2419 4116 
z
M 2253 4666 
L 3047 4666 
L 3047 1625 
L 3713 1625 
L 3713 1100 
L 3047 1100 
L 3047 0 
L 2419 0 
L 2419 1100 
L 313 1100 
L 313 1709 
L 2253 4666 
z
" transform="scale(0.015625)"/>
       </defs>
       <use xlink:href="#DejaVuSans-34"/>
       <use xlink:href="#DejaVuSans-30" x="63.623047"/>
      </g>
     </g>
    </g>
    <g id="xtick_3">
     <g id="line2d_3">
      <g>
       <use xlink:href="#m6268c4303b" x="218.901067" y="320.4" style="stroke: #000000; stroke-width: 0.8"/>
      </g>
     </g>
     <g id="text_3">
      <!-- 60 -->
      <g transform="translate(212.538567 334.998438) scale(0.1 -0.1)">
       <defs>
        <path id="DejaVuSans-36" d="M 2113 2584 
Q 1688 2584 1439 2293 
Q 1191 2003 1191 1497 
Q 1191 994 1439 701 
Q 1688 409 2113 409 
Q 2538 409 2786 701 
Q 3034 994 3034 1497 
Q 3034 2003 2786 2293 
Q 2538 2584 2113 2584 
z
M 3366 4563 
L 3366 3988 
Q 3128 4100 2886 4159 
Q 2644 4219 2406 4219 
Q 1781 4219 1451 3797 
Q 1122 3375 1075 2522 
Q 1259 2794 1537 2939 
Q 1816 3084 2150 3084 
Q 2853 3084 3261 2657 
Q 3669 2231 3669 1497 
Q 3669 778 3244 343 
Q 2819 -91 2113 -91 
Q 1303 -91 875 529 
Q 447 1150 447 2328 
Q 447 3434 972 4092 
Q 1497 4750 2381 4750 
Q 2619 4750 2861 4703 
Q 3103 4656 3366 4563 
z
" transform="scale(0.015625)"/>
       </defs>
       <use xlink:href="#DejaVuSans-36"/>
       <use xlink:href="#DejaVuSans-30" x="63.623047"/>
      </g>
     </g>
    </g>
    <g id="xtick_4">
     <g id="line2d_4">
      <g>
       <use xlink:href="#m6268c4303b" x="257.445186" y="320.4" style="stroke: #000000; stroke-width: 0.8"/>
      </g>
     </g>
     <g id="text_4">
      <!-- 80 -->
      <g transform="translate(251.082686 334.998438) scale(0.1 -0.1)">
       <defs>
        <path id="DejaVuSans-38" d="M 2034 2216 
Q 1584 2216 1326 1975 
Q 1069 1734 1069 1313 
Q 1069 891 1326 650 
Q 1584 409 2034 409 
Q 2484 409 2743 651 
Q 3003 894 3003 1313 
Q 3003 1734 2745 1975 
Q 2488 2216 2034 2216 
z
M 1403 2484 
Q 997 2584 770 2862 
Q 544 3141 544 3541 
Q 544 4100 942 4425 
Q 1341 4750 2034 4750 
Q 2731 4750 3128 4425 
Q 3525 4100 3525 3541 
Q 3525 3141 3298 2862 
Q 3072 2584 2669 2484 
Q 3125 2378 3379 2068 
Q 3634 1759 3634 1313 
Q 3634 634 3220 271 
Q 2806 -91 2034 -91 
Q 1263 -91 848 271 
Q 434 634 434 1313 
Q 434 1759 690 2068 
Q 947 2378 1403 2484 
z
M 1172 3481 
Q 1172 3119 1398 2916 
Q 1625 2713 2034 2713 
Q 2441 2713 2670 2916 
Q 2900 3119 2900 3481 
Q 2900 3844 2670 4047 
Q 2441 4250 2034 4250 
Q 1625 4250 1398 4047 
Q 1172 3844 1172 3481 
z
" transform="scale(0.015625)"/>
       </defs>
       <use xlink:href="#DejaVuSans-38"/>
       <use xlink:href="#DejaVuSans-30" x="63.623047"/>
      </g>
     </g>
    </g>
    <g id="xtick_5">
     <g id="line2d_5">
      <g>
       <use xlink:href="#m6268c4303b" x="295.989305" y="320.4" style="stroke: #000000; stroke-width: 0.8"/>
      </g>
     </g>
     <g id="text_5">
      <!-- 100 -->
      <g transform="translate(286.445555 334.998438) scale(0.1 -0.1)">
       <defs>
        <path id="DejaVuSans-31" d="M 794 531 
L 1825 531 
L 1825 4091 
L 703 3866 
L 703 4441 
L 1819 4666 
L 2450 4666 
L 2450 531 
L 3481 531 
L 3481 0 
L 794 0 
L 794 531 
z
" transform="scale(0.015625)"/>
       </defs>
       <use xlink:href="#DejaVuSans-31"/>
       <use xlink:href="#DejaVuSans-30" x="63.623047"/>
       <use xlink:href="#DejaVuSans-30" x="127.246094"/>
      </g>
     </g>
    </g>
   </g>
   <g id="matplotlib.axis_2">
    <g id="ytick_1">
     <g id="line2d_6">
      <defs>
       <path id="mb343980e67" d="M 0 0 
L -3.5 0 
" style="stroke: #000000; stroke-width: 0.8"/>
      </defs>
      <g>
       <use xlink:href="#mb343980e67" x="108" y="320.4" style="stroke: #000000; stroke-width: 0.8"/>
      </g>
     </g>
     <g id="text_6">
      <!-- 0 -->
      <g transform="translate(94.6375 324.199219) scale(0.1 -0.1)">
       <use xlink:href="#DejaVuSans-30"/>
      </g>
     </g>
    </g>
    <g id="ytick_2">
     <g id="line2d_7">
      <g>
       <use xlink:href="#mb343980e67" x="108" y="269.630769" style="stroke: #000000; stroke-width: 0.8"/>
      </g>
     </g>
     <g id="text_7">
      <!-- 5 -->
      <g transform="translate(94.6375 273.429988) scale(0.1 -0.1)">
       <defs>
        <path id="DejaVuSans-35" d="M 691 4666 
L 3169 4666 
L 3169 4134 
L 1269 4134 
L 1269 2991 
Q 1406 3038 1543 3061 
Q 1681 3084 1819 3084 
Q 2600 3084 3056 2656 
Q 3513 2228 3513 1497 
Q 3513 744 3044 326 
Q 2575 -91 1722 -91 
Q 1428 -91 1123 -41 
Q 819 9 494 109 
L 494 744 
Q 775 591 1075 516 
Q 1375 441 1709 441 
Q 2250 441 2565 725 
Q 2881 1009 2881 1497 
Q 2881 1984 2565 2268 
Q 2250 2553 1709 2553 
Q 1456 2553 1204 2497 
Q 953 2441 691 2322 
L 691 4666 
z
" transform="scale(0.015625)"/>
       </defs>
       <use xlink:href="#DejaVuSans-35"/>
      </g>
     </g>
    </g>
    <g id="ytick_3">
     <g id="line2d_8">
      <g>
       <use xlink:href="#mb343980e67" x="108" y="218.861538" style="stroke: #000000; stroke-width: 0.8"/>
      </g>
     </g>
     <g id="text_8">
      <!-- 10 -->
      <g transform="translate(88.275 222.660757) scale(0.1 -0.1)">
       <use xlink:href="#DejaVuSans-31"/>
       <use xlink:href="#DejaVuSans-30" x="63.623047"/>
      </g>
     </g>
    </g>
    <g id="ytick_4">
     <g id="line2d_9">
      <g>
       <use xlink:href="#mb343980e67" x="108" y="168.092308" style="stroke: #000000; stroke-width: 0.8"/>
      </g>
     </g>
     <g id="text_9">
      <!-- 15 -->
      <g transform="translate(88.275 171.891526) scale(0.1 -0.1)">
       <use xlink:href="#DejaVuSans-31"/>
       <use xlink:href="#DejaVuSans-35" x="63.623047"/>
      </g>
     </g>
    </g>
    <g id="ytick_5">
     <g id="line2d_10">
      <g>
       <use xlink:href="#mb343980e67" x="108" y="117.323077" style="stroke: #000000; stroke-width: 0.8"/>
      </g>
     </g>
     <g id="text_10">
      <!-- 20 -->
      <g transform="translate(88.275 121.122296) scale(0.1 -0.1)">
       <use xlink:href="#DejaVuSans-32"/>
       <use xlink:href="#DejaVuSans-30" x="63.623047"/>
      </g>
     </g>
    </g>
    <g id="ytick_6">
     <g id="line2d_11">
      <g>
       <use xlink:href="#mb343980e67" x="108" y="66.553846" style="stroke: #000000; stroke-width: 0.8"/>
      </g>
     </g>
     <g id="text_11">
      <!-- 25 -->
      <g transform="translate(88.275 70.353065) scale(0.1 -0.1)">
       <use xlink:href="#DejaVuSans-32"/>
       <use xlink:href="#DejaVuSans-35" x="63.623047"/>
      </g>
     </g>
    </g>
   </g>
   <g id="patch_23">
    <path d="M 108 320.4 
L 108 43.2 
" style="fill: none; stroke: #000000; stroke-width: 0.8; stroke-linejoin: miter; stroke-linecap: square"/>
   </g>
   <g id="patch_24">
    <path d="M 304.941176 320.4 
L 304.941176 43.2 
" style="fill: none; stroke: #000000; stroke-width: 0.8; stroke-linejoin: miter; stroke-linecap: square"/>
   </g>
   <g id="patch_25">
    <path d="M 108 320.4 
L 304.941176 320.4 
" style="fill: none; stroke: #000000; stroke-width: 0.8; stroke-linejoin: miter; stroke-linecap: square"/>
   </g>
   <g id="patch_26">
    <path d="M 108 43.2 
L 304.941176 43.2 
" style="fill: none; stroke: #000000; stroke-width: 0.8; stroke-linejoin: miter; stroke-linecap: square"/>
   </g>
  </g>
  <g id="axes_2">
   <g id="patch_27">
    <path d="M 344.329412 320.4 
L 541.270588 320.4 
L 541.270588 43.2 
L 344.329412 43.2 
z
" style="fill: #ffffff"/>
   </g>
   <g id="patch_28">
    <path d="M 353.281283 320.4 
L 362.233155 320.4 
L 362.233155 56.4 
L 353.281283 56.4 
z
" clip-path="url(#p3b8204eb62)" style="fill: #1e1e1e"/>
   </g>
   <g id="patch_29">
    <path d="M 362.233155 320.4 
L 371.185027 320.4 
L 371.185027 173.733333 
L 362.233155 173.733333 
z
" clip-path="url(#p3b8204eb62)" style="fill: #1e1e1e"/>
   </g>
   <g id="patch_30">
    <path d="M 371.185027 320.4 
L 380.136898 320.4 
L 380.136898 261.733333 
L 371.185027 261.733333 
z
" clip-path="url(#p3b8204eb62)" style="fill: #1e1e1e"/>
   </g>
   <g id="patch_31">
    <path d="M 380.136898 320.4 
L 389.08877 320.4 
L 389.08877 320.4 
L 380.136898 320.4 
z
" clip-path="url(#p3b8204eb62)" style="fill: #1e1e1e"/>
   </g>
   <g id="patch_32">
    <path d="M 389.08877 320.4 
L 398.040642 320.4 
L 398.040642 320.4 
L 389.08877 320.4 
z
" clip-path="url(#p3b8204eb62)" style="fill: #1e1e1e"/>
   </g>
   <g id="patch_33">
    <path d="M 398.040642 320.4 
L 406.992513 320.4 
L 406.992513 320.4 
L 398.040642 320.4 
z
" clip-path="url(#p3b8204eb62)" style="fill: #1e1e1e"/>
   </g>
   <g id="patch_34">
    <path d="M 406.992513 320.4 
L 415.944385 320.4 
L 415.944385 320.4 
L 406.992513 320.4 
z
" clip-path="url(#p3b8204eb62)" style="fill: #1e1e1e"/>
   </g>
   <g id="patch_35">
    <path d="M 415.944385 320.4 
L 424.896257 320.4 
L 424.896257 320.4 
L 415.944385 320.4 
z
" clip-path="url(#p3b8204eb62)" style="fill: #1e1e1e"/>
   </g>
   <g id="patch_36">
    <path d="M 424.896257 320.4 
L 433.848128 320.4 
L 433.848128 320.4 
L 424.896257 320.4 
z
" clip-path="url(#p3b8204eb62)" style="fill: #1e1e1e"/>
   </g>
   <g id="patch_37">
    <path d="M 433.848128 320.4 
L 442.8 320.4 
L 442.8 320.4 
L 433.848128 320.4 
z
" clip-path="url(#p3b8204eb62)" style="fill: #1e1e1e"/>
   </g>
   <g id="patch_38">
    <path d="M 442.8 320.4 
L 451.751872 320.4 
L 451.751872 320.4 
L 442.8 320.4 
z
" clip-path="url(#p3b8204eb62)" style="fill: #1e1e1e"/>
   </g>
   <g id="patch_39">
    <path d="M 451.751872 320.4 
L 460.703743 320.4 
L 460.703743 320.4 
L 451.751872 320.4 
z
" clip-path="url(#p3b8204eb62)" style="fill: #1e1e1e"/>
   </g>
   <g id="patch_40">
    <path d="M 460.703743 320.4 
L 469.655615 320.4 
L 469.655615 320.4 
L 460.703743 320.4 
z
" clip-path="url(#p3b8204eb62)" style="fill: #1e1e1e"/>
   </g>
   <g id="patch_41">
    <path d="M 469.655615 320.4 
L 478.607487 320.4 
L 478.607487 291.066667 
L 469.655615 291.066667 
z
" clip-path="url(#p3b8204eb62)" style="fill: #1e1e1e"/>
   </g>
   <g id="patch_42">
    <path d="M 478.607487 320.4 
L 487.559358 320.4 
L 487.559358 320.4 
L 478.607487 320.4 
z
" clip-path="url(#p3b8204eb62)" style="fill: #1e1e1e"/>
   </g>
   <g id="patch_43">
    <path d="M 487.559358 320.4 
L 496.51123 320.4 
L 496.51123 320.4 
L 487.559358 320.4 
z
" clip-path="url(#p3b8204eb62)" style="fill: #1e1e1e"/>
   </g>
   <g id="patch_44">
    <path d="M 496.51123 320.4 
L 505.463102 320.4 
L 505.463102 320.4 
L 496.51123 320.4 
z
" clip-path="url(#p3b8204eb62)" style="fill: #1e1e1e"/>
   </g>
   <g id="patch_45">
    <path d="M 505.463102 320.4 
L 514.414973 320.4 
L 514.414973 320.4 
L 505.463102 320.4 
z
" clip-path="url(#p3b8204eb62)" style="fill: #1e1e1e"/>
   </g>
   <g id="patch_46">
    <path d="M 514.414973 320.4 
L 523.366845 320.4 
L 523.366845 320.4 
L 514.414973 320.4 
z
" clip-path="url(#p3b8204eb62)" style="fill: #1e1e1e"/>
   </g>
   <g id="patch_47">
    <path d="M 523.366845 320.4 
L 532.318717 320.4 
L 532.318717 320.4 
L 523.366845 320.4 
z
" clip-path="url(#p3b8204eb62)" style="fill: #1e1e1e"/>
   </g>
   <g id="matplotlib.axis_3">
    <g id="xtick_6">
     <g id="line2d_12">
      <g>
       <use xlink:href="#m6268c4303b" x="390.973375" y="320.4" style="stroke: #000000; stroke-width: 0.8"/>
      </g>
     </g>
     <g id="text_12">
      <!-- 500 -->
      <g transform="translate(381.429625 334.998438) scale(0.1 -0.1)">
       <use xlink:href="#DejaVuSans-35"/>
       <use xlink:href="#DejaVuSans-30" x="63.623047"/>
       <use xlink:href="#DejaVuSans-30" x="127.246094"/>
      </g>
     </g>
    </g>
    <g id="xtick_7">
     <g id="line2d_13">
      <g>
       <use xlink:href="#m6268c4303b" x="438.088489" y="320.4" style="stroke: #000000; stroke-width: 0.8"/>
      </g>
     </g>
     <g id="text_13">
      <!-- 1000 -->
      <g transform="translate(425.363489 334.998438) scale(0.1 -0.1)">
       <use xlink:href="#DejaVuSans-31"/>
       <use xlink:href="#DejaVuSans-30" x="63.623047"/>
       <use xlink:href="#DejaVuSans-30" x="127.246094"/>
       <use xlink:href="#DejaVuSans-30" x="190.869141"/>
      </g>
     </g>
    </g>
    <g id="xtick_8">
     <g id="line2d_14">
      <g>
       <use xlink:href="#m6268c4303b" x="485.203603" y="320.4" style="stroke: #000000; stroke-width: 0.8"/>
      </g>
     </g>
     <g id="text_14">
      <!-- 1500 -->
      <g transform="translate(472.478603 334.998438) scale(0.1 -0.1)">
       <use xlink:href="#DejaVuSans-31"/>
       <use xlink:href="#DejaVuSans-35" x="63.623047"/>
       <use xlink:href="#DejaVuSans-30" x="127.246094"/>
       <use xlink:href="#DejaVuSans-30" x="190.869141"/>
      </g>
     </g>
    </g>
    <g id="xtick_9">
     <g id="line2d_15">
      <g>
       <use xlink:href="#m6268c4303b" x="532.318717" y="320.4" style="stroke: #000000; stroke-width: 0.8"/>
      </g>
     </g>
     <g id="text_15">
      <!-- 2000 -->
      <g transform="translate(519.593717 334.998438) scale(0.1 -0.1)">
       <use xlink:href="#DejaVuSans-32"/>
       <use xlink:href="#DejaVuSans-30" x="63.623047"/>
       <use xlink:href="#DejaVuSans-30" x="127.246094"/>
       <use xlink:href="#DejaVuSans-30" x="190.869141"/>
      </g>
     </g>
    </g>
   </g>
   <g id="matplotlib.axis_4">
    <g id="ytick_7">
     <g id="line2d_16">
      <g>
       <use xlink:href="#mb343980e67" x="344.329412" y="320.4" style="stroke: #000000; stroke-width: 0.8"/>
      </g>
     </g>
     <g id="text_16">
      <!-- 0 -->
      <g transform="translate(330.966912 324.199219) scale(0.1 -0.1)">
       <use xlink:href="#DejaVuSans-30"/>
      </g>
     </g>
    </g>
    <g id="ytick_8">
     <g id="line2d_17">
      <g>
       <use xlink:href="#mb343980e67" x="344.329412" y="261.733333" style="stroke: #000000; stroke-width: 0.8"/>
      </g>
     </g>
     <g id="text_17">
      <!-- 2 -->
      <g transform="translate(330.966912 265.532552) scale(0.1 -0.1)">
       <use xlink:href="#DejaVuSans-32"/>
      </g>
     </g>
    </g>
    <g id="ytick_9">
     <g id="line2d_18">
      <g>
       <use xlink:href="#mb343980e67" x="344.329412" y="203.066667" style="stroke: #000000; stroke-width: 0.8"/>
      </g>
     </g>
     <g id="text_18">
      <!-- 4 -->
      <g transform="translate(330.966912 206.865885) scale(0.1 -0.1)">
       <use xlink:href="#DejaVuSans-34"/>
      </g>
     </g>
    </g>
    <g id="ytick_10">
     <g id="line2d_19">
      <g>
       <use xlink:href="#mb343980e67" x="344.329412" y="144.4" style="stroke: #000000; stroke-width: 0.8"/>
      </g>
     </g>
     <g id="text_19">
      <!-- 6 -->
      <g transform="translate(330.966912 148.199219) scale(0.1 -0.1)">
       <use xlink:href="#DejaVuSans-36"/>
      </g>
     </g>
    </g>
    <g id="ytick_11">
     <g id="line2d_20">
      <g>
       <use xlink:href="#mb343980e67" x="344.329412" y="85.733333" style="stroke: #000000; stroke-width: 0.8"/>
      </g>
     </g>
     <g id="text_20">
      <!-- 8 -->
      <g transform="translate(330.966912 89.532552) scale(0.1 -0.1)">
       <use xlink:href="#DejaVuSans-38"/>
      </g>
     </g>
    </g>
   </g>
   <g id="patch_48">
    <path d="M 344.329412 320.4 
L 344.329412 43.2 
" style="fill: none; stroke: #000000; stroke-width: 0.8; stroke-linejoin: miter; stroke-linecap: square"/>
   </g>
   <g id="patch_49">
    <path d="M 541.270588 320.4 
L 541.270588 43.2 
" style="fill: none; stroke: #000000; stroke-width: 0.8; stroke-linejoin: miter; stroke-linecap: square"/>
   </g>
   <g id="patch_50">
    <path d="M 344.329412 320.4 
L 541.270588 320.4 
" style="fill: none; stroke: #000000; stroke-width: 0.8; stroke-linejoin: miter; stroke-linecap: square"/>
   </g>
   <g id="patch_51">
    <path d="M 344.329412 43.2 
L 541.270588 43.2 
" style="fill: none; stroke: #000000; stroke-width: 0.8; stroke-linejoin: miter; stroke-linecap: square"/>
   </g>
  </g>
  <g id="axes_3">
   <g id="patch_52">
    <path d="M 580.658824 320.4 
L 777.6 320.4 
L 777.6 43.2 
L 580.658824 43.2 
z
" style="fill: #ffffff"/>
   </g>
   <g id="patch_53">
    <path d="M 589.610695 181.8 
L 598.562567 181.8 
L 598.562567 181.8 
L 589.610695 181.8 
z
" clip-path="url(#p78385dccb1)" style="fill: #ff4500"/>
   </g>
   <g id="patch_54">
    <path d="M 598.562567 181.8 
L 607.514439 181.8 
L 607.514439 181.8 
L 598.562567 181.8 
z
" clip-path="url(#p78385dccb1)" style="fill: #ff4500"/>
   </g>
   <g id="patch_55">
    <path d="M 607.514439 181.8 
L 616.46631 181.8 
L 616.46631 181.8 
L 607.514439 181.8 
z
" clip-path="url(#p78385dccb1)" style="fill: #ff4500"/>
   </g>
   <g id="patch_56">
    <path d="M 616.46631 181.8 
L 625.418182 181.8 
L 625.418182 181.8 
L 616.46631 181.8 
z
" clip-path="url(#p78385dccb1)" style="fill: #ff4500"/>
   </g>
   <g id="patch_57">
    <path d="M 625.418182 181.8 
L 634.370053 181.8 
L 634.370053 181.8 
L 625.418182 181.8 
z
" clip-path="url(#p78385dccb1)" style="fill: #ff4500"/>
   </g>
   <g id="patch_58">
    <path d="M 634.370053 181.8 
L 643.321925 181.8 
L 643.321925 181.8 
L 634.370053 181.8 
z
" clip-path="url(#p78385dccb1)" style="fill: #ff4500"/>
   </g>
   <g id="patch_59">
    <path d="M 643.321925 181.8 
L 652.273797 181.8 
L 652.273797 181.8 
L 643.321925 181.8 
z
" clip-path="url(#p78385dccb1)" style="fill: #ff4500"/>
   </g>
   <g id="patch_60">
    <path d="M 652.273797 181.8 
L 661.225668 181.8 
L 661.225668 181.8 
L 652.273797 181.8 
z
" clip-path="url(#p78385dccb1)" style="fill: #ff4500"/>
   </g>
   <g id="patch_61">
    <path d="M 661.225668 181.8 
L 670.17754 181.8 
L 670.17754 181.8 
L 661.225668 181.8 
z
" clip-path="url(#p78385dccb1)" style="fill: #ff4500"/>
   </g>
   <g id="patch_62">
    <path d="M 670.17754 181.8 
L 679.129412 181.8 
L 679.129412 181.8 
L 670.17754 181.8 
z
" clip-path="url(#p78385dccb1)" style="fill: #ff4500"/>
   </g>
   <g id="patch_63">
    <path d="M 679.129412 181.8 
L 688.081283 181.8 
L 688.081283 181.8 
L 679.129412 181.8 
z
" clip-path="url(#p78385dccb1)" style="fill: #ff4500"/>
   </g>
   <g id="patch_64">
    <path d="M 688.081283 181.8 
L 697.033155 181.8 
L 697.033155 181.8 
L 688.081283 181.8 
z
" clip-path="url(#p78385dccb1)" style="fill: #ff4500"/>
   </g>
   <g id="patch_65">
    <path d="M 697.033155 181.8 
L 705.985027 181.8 
L 705.985027 181.8 
L 697.033155 181.8 
z
" clip-path="url(#p78385dccb1)" style="fill: #ff4500"/>
   </g>
   <g id="patch_66">
    <path d="M 705.985027 181.8 
L 714.936898 181.8 
L 714.936898 181.8 
L 705.985027 181.8 
z
" clip-path="url(#p78385dccb1)" style="fill: #ff4500"/>
   </g>
   <g id="patch_67">
    <path d="M 714.936898 181.8 
L 723.88877 181.8 
L 723.88877 181.8 
L 714.936898 181.8 
z
" clip-path="url(#p78385dccb1)" style="fill: #ff4500"/>
   </g>
   <g id="patch_68">
    <path d="M 723.88877 181.8 
L 732.840642 181.8 
L 732.840642 181.8 
L 723.88877 181.8 
z
" clip-path="url(#p78385dccb1)" style="fill: #ff4500"/>
   </g>
   <g id="patch_69">
    <path d="M 732.840642 181.8 
L 741.792513 181.8 
L 741.792513 181.8 
L 732.840642 181.8 
z
" clip-path="url(#p78385dccb1)" style="fill: #ff4500"/>
   </g>
   <g id="patch_70">
    <path d="M 741.792513 181.8 
L 750.744385 181.8 
L 750.744385 181.8 
L 741.792513 181.8 
z
" clip-path="url(#p78385dccb1)" style="fill: #ff4500"/>
   </g>
   <g id="patch_71">
    <path d="M 750.744385 181.8 
L 759.696257 181.8 
L 759.696257 181.8 
L 750.744385 181.8 
z
" clip-path="url(#p78385dccb1)" style="fill: #ff4500"/>
   </g>
   <g id="patch_72">
    <path d="M 759.696257 181.8 
L 768.648128 181.8 
L 768.648128 181.8 
L 759.696257 181.8 
z
" clip-path="url(#p78385dccb1)" style="fill: #ff4500"/>
   </g>
   <g id="matplotlib.axis_5">
    <g id="xtick_10">
     <g id="line2d_21">
      <g>
       <use xlink:href="#m6268c4303b" x="633.013709" y="320.4" style="stroke: #000000; stroke-width: 0.8"/>
      </g>
     </g>
     <g id="text_21">
      <!-- 10000 -->
      <g transform="translate(617.107459 334.998438) scale(0.1 -0.1)">
       <use xlink:href="#DejaVuSans-31"/>
       <use xlink:href="#DejaVuSans-30" x="63.623047"/>
       <use xlink:href="#DejaVuSans-30" x="127.246094"/>
       <use xlink:href="#DejaVuSans-30" x="190.869141"/>
       <use xlink:href="#DejaVuSans-30" x="254.492188"/>
      </g>
     </g>
    </g>
    <g id="xtick_11">
     <g id="line2d_22">
      <g>
       <use xlink:href="#m6268c4303b" x="687.267477" y="320.4" style="stroke: #000000; stroke-width: 0.8"/>
      </g>
     </g>
     <g id="text_22">
      <!-- 20000 -->
      <g transform="translate(671.361227 334.998438) scale(0.1 -0.1)">
       <use xlink:href="#DejaVuSans-32"/>
       <use xlink:href="#DejaVuSans-30" x="63.623047"/>
       <use xlink:href="#DejaVuSans-30" x="127.246094"/>
       <use xlink:href="#DejaVuSans-30" x="190.869141"/>
       <use xlink:href="#DejaVuSans-30" x="254.492188"/>
      </g>
     </g>
    </g>
    <g id="xtick_12">
     <g id="line2d_23">
      <g>
       <use xlink:href="#m6268c4303b" x="741.521245" y="320.4" style="stroke: #000000; stroke-width: 0.8"/>
      </g>
     </g>
     <g id="text_23">
      <!-- 30000 -->
      <g transform="translate(725.614995 334.998438) scale(0.1 -0.1)">
       <defs>
        <path id="DejaVuSans-33" d="M 2597 2516 
Q 3050 2419 3304 2112 
Q 3559 1806 3559 1356 
Q 3559 666 3084 287 
Q 2609 -91 1734 -91 
Q 1441 -91 1130 -33 
Q 819 25 488 141 
L 488 750 
Q 750 597 1062 519 
Q 1375 441 1716 441 
Q 2309 441 2620 675 
Q 2931 909 2931 1356 
Q 2931 1769 2642 2001 
Q 2353 2234 1838 2234 
L 1294 2234 
L 1294 2753 
L 1863 2753 
Q 2328 2753 2575 2939 
Q 2822 3125 2822 3475 
Q 2822 3834 2567 4026 
Q 2313 4219 1838 4219 
Q 1578 4219 1281 4162 
Q 984 4106 628 3988 
L 628 4550 
Q 988 4650 1302 4700 
Q 1616 4750 1894 4750 
Q 2613 4750 3031 4423 
Q 3450 4097 3450 3541 
Q 3450 3153 3228 2886 
Q 3006 2619 2597 2516 
z
" transform="scale(0.015625)"/>
       </defs>
       <use xlink:href="#DejaVuSans-33"/>
       <use xlink:href="#DejaVuSans-30" x="63.623047"/>
       <use xlink:href="#DejaVuSans-30" x="127.246094"/>
       <use xlink:href="#DejaVuSans-30" x="190.869141"/>
       <use xlink:href="#DejaVuSans-30" x="254.492188"/>
      </g>
     </g>
    </g>
   </g>
   <g id="matplotlib.axis_6">
    <g id="ytick_12">
     <g id="line2d_24">
      <g>
       <use xlink:href="#mb343980e67" x="580.658824" y="282.6" style="stroke: #000000; stroke-width: 0.8"/>
      </g>
     </g>
     <g id="text_24">
      <!-- −0.04 -->
      <g transform="translate(543.013511 286.399219) scale(0.1 -0.1)">
       <defs>
        <path id="DejaVuSans-2212" d="M 678 2272 
L 4684 2272 
L 4684 1741 
L 678 1741 
L 678 2272 
z
" transform="scale(0.015625)"/>
        <path id="DejaVuSans-2e" d="M 684 794 
L 1344 794 
L 1344 0 
L 684 0 
L 684 794 
z
" transform="scale(0.015625)"/>
       </defs>
       <use xlink:href="#DejaVuSans-2212"/>
       <use xlink:href="#DejaVuSans-30" x="83.789062"/>
       <use xlink:href="#DejaVuSans-2e" x="147.412109"/>
       <use xlink:href="#DejaVuSans-30" x="179.199219"/>
       <use xlink:href="#DejaVuSans-34" x="242.822266"/>
      </g>
     </g>
    </g>
    <g id="ytick_13">
     <g id="line2d_25">
      <g>
       <use xlink:href="#mb343980e67" x="580.658824" y="232.2" style="stroke: #000000; stroke-width: 0.8"/>
      </g>
     </g>
     <g id="text_25">
      <!-- −0.02 -->
      <g transform="translate(543.013511 235.999219) scale(0.1 -0.1)">
       <use xlink:href="#DejaVuSans-2212"/>
       <use xlink:href="#DejaVuSans-30" x="83.789062"/>
       <use xlink:href="#DejaVuSans-2e" x="147.412109"/>
       <use xlink:href="#DejaVuSans-30" x="179.199219"/>
       <use xlink:href="#DejaVuSans-32" x="242.822266"/>
      </g>
     </g>
    </g>
    <g id="ytick_14">
     <g id="line2d_26">
      <g>
       <use xlink:href="#mb343980e67" x="580.658824" y="181.8" style="stroke: #000000; stroke-width: 0.8"/>
      </g>
     </g>
     <g id="text_26">
      <!-- 0.00 -->
      <g transform="translate(551.393199 185.599219) scale(0.1 -0.1)">
       <use xlink:href="#DejaVuSans-30"/>
       <use xlink:href="#DejaVuSans-2e" x="63.623047"/>
       <use xlink:href="#DejaVuSans-30" x="95.410156"/>
       <use xlink:href="#DejaVuSans-30" x="159.033203"/>
      </g>
     </g>
    </g>
    <g id="ytick_15">
     <g id="line2d_27">
      <g>
       <use xlink:href="#mb343980e67" x="580.658824" y="131.4" style="stroke: #000000; stroke-width: 0.8"/>
      </g>
     </g>
     <g id="text_27">
      <!-- 0.02 -->
      <g transform="translate(551.393199 135.199219) scale(0.1 -0.1)">
       <use xlink:href="#DejaVuSans-30"/>
       <use xlink:href="#DejaVuSans-2e" x="63.623047"/>
       <use xlink:href="#DejaVuSans-30" x="95.410156"/>
       <use xlink:href="#DejaVuSans-32" x="159.033203"/>
      </g>
     </g>
    </g>
    <g id="ytick_16">
     <g id="line2d_28">
      <g>
       <use xlink:href="#mb343980e67" x="580.658824" y="81" style="stroke: #000000; stroke-width: 0.8"/>
      </g>
     </g>
     <g id="text_28">
      <!-- 0.04 -->
      <g transform="translate(551.393199 84.799219) scale(0.1 -0.1)">
       <use xlink:href="#DejaVuSans-30"/>
       <use xlink:href="#DejaVuSans-2e" x="63.623047"/>
       <use xlink:href="#DejaVuSans-30" x="95.410156"/>
       <use xlink:href="#DejaVuSans-34" x="159.033203"/>
      </g>
     </g>
    </g>
   </g>
   <g id="patch_73">
    <path d="M 580.658824 320.4 
L 580.658824 43.2 
" style="fill: none; stroke: #000000; stroke-width: 0.8; stroke-linejoin: miter; stroke-linecap: square"/>
   </g>
   <g id="patch_74">
    <path d="M 777.6 320.4 
L 777.6 43.2 
" style="fill: none; stroke: #000000; stroke-width: 0.8; stroke-linejoin: miter; stroke-linecap: square"/>
   </g>
   <g id="patch_75">
    <path d="M 580.658824 320.4 
L 777.6 320.4 
" style="fill: none; stroke: #000000; stroke-width: 0.8; stroke-linejoin: miter; stroke-linecap: square"/>
   </g>
   <g id="patch_76">
    <path d="M 580.658824 43.2 
L 777.6 43.2 
" style="fill: none; stroke: #000000; stroke-width: 0.8; stroke-linejoin: miter; stroke-linecap: square"/>
   </g>
  </g>
 </g>
 <defs>
  <clipPath id="pda4de011d4">
   <rect x="108" y="43.2" width="196.941176" height="277.2"/>
  </clipPath>
  <clipPath id="p3b8204eb62">
   <rect x="344.329412" y="43.2" width="196.941176" height="277.2"/>
  </clipPath>
  <clipPath id="p78385dccb1">
   <rect x="580.658824" y="43.2" width="196.941176" height="277.2"/>
  </clipPath>
 </defs>
</svg>
