<?xml version="1.0" encoding="utf-8" standalone="no"?>
<!DOCTYPE svg PUBLIC "-//W3C//DTD SVG 1.1//EN"
  "http://www.w3.org/Graphics/SVG/1.1/DTD/svg11.dtd">
<svg xmlns:xlink="http://www.w3.org/1999/xlink" width="864pt" height="360pt" viewBox="0 0 864 360" xmlns="http://www.w3.org/2000/svg" version="1.1">
 <metadata>
  <rdf:RDF xmlns:dc="http://purl.org/dc/elements/1.1/" xmlns:cc="http://creativecommons.org/ns#" xmlns:rdf="http://www.w3.org/1999/02/22-rdf-syntax-ns#">
   <cc:Work>
    <dc:type rdf:resource="http://purl.org/dc/dcmitype/StillImage"/>
    <dc:date>2023-03-31T15:52:11.709498</dc:date>
    <dc:format>image/svg+xml</dc:format>
    <dc:creator>
     <cc:Agent>
      <dc:title>Matplotlib v3.7.1, https://matplotlib.org/</dc:title>
     </cc:Agent>
    </dc:creator>
   </cc:Work>
  </rdf:RDF>
 </metadata>
 <defs>
  <style type="text/css">*{stroke-linejoin: round; stroke-linecap: butt}</style>
 </defs>
 <g id="figure_1">
  <g id="patch_1">
   <path d="M 0 360 
L 864 360 
L 864 0 
L 0 0 
z
" style="fill: #ffffff"/>
  </g>
  <g id="axes_1">
   <g id="patch_2">
    <path d="M 52.92 311.94 
L 840.3525 311.94 
L 840.3525 17.1 
L 52.92 17.1 
z
" style="fill: #eaeaf2"/>
   </g>
   <g id="matplotlib.axis_1">
    <g id="xtick_1">
     <g id="line2d_1">
      <path d="M 52.92 311.94 
L 52.92 17.1 
" clip-path="url(#paace4cc7df)" style="fill: none; stroke: #ffffff; stroke-linecap: round"/>
     </g>
     <g id="text_1">
      <!-- 0.0 -->
      <g style="fill: #262626" transform="translate(45.275 329.313594) scale(0.11 -0.11)">
       <defs>
        <path id="ArialMT-30" d="M 266 2259 
Q 266 3072 433 3567 
Q 600 4063 929 4331 
Q 1259 4600 1759 4600 
Q 2128 4600 2406 4451 
Q 2684 4303 2865 4023 
Q 3047 3744 3150 3342 
Q 3253 2941 3253 2259 
Q 3253 1453 3087 958 
Q 2922 463 2592 192 
Q 2263 -78 1759 -78 
Q 1097 -78 719 397 
Q 266 969 266 2259 
z
M 844 2259 
Q 844 1131 1108 757 
Q 1372 384 1759 384 
Q 2147 384 2411 759 
Q 2675 1134 2675 2259 
Q 2675 3391 2411 3762 
Q 2147 4134 1753 4134 
Q 1366 4134 1134 3806 
Q 844 3388 844 2259 
z
" transform="scale(0.015625)"/>
        <path id="ArialMT-2e" d="M 581 0 
L 581 641 
L 1222 641 
L 1222 0 
L 581 0 
z
" transform="scale(0.015625)"/>
       </defs>
       <use xlink:href="#ArialMT-30"/>
       <use xlink:href="#ArialMT-2e" x="55.615234"/>
       <use xlink:href="#ArialMT-30" x="83.398438"/>
      </g>
     </g>
    </g>
    <g id="xtick_2">
     <g id="line2d_2">
      <path d="M 151.349063 311.94 
L 151.349063 17.1 
" clip-path="url(#paace4cc7df)" style="fill: none; stroke: #ffffff; stroke-linecap: round"/>
     </g>
     <g id="text_2">
      <!-- 2.5 -->
      <g style="fill: #262626" transform="translate(143.704062 329.313594) scale(0.11 -0.11)">
       <defs>
        <path id="ArialMT-32" d="M 3222 541 
L 3222 0 
L 194 0 
Q 188 203 259 391 
Q 375 700 629 1000 
Q 884 1300 1366 1694 
Q 2113 2306 2375 2664 
Q 2638 3022 2638 3341 
Q 2638 3675 2398 3904 
Q 2159 4134 1775 4134 
Q 1369 4134 1125 3890 
Q 881 3647 878 3216 
L 300 3275 
Q 359 3922 746 4261 
Q 1134 4600 1788 4600 
Q 2447 4600 2831 4234 
Q 3216 3869 3216 3328 
Q 3216 3053 3103 2787 
Q 2991 2522 2730 2228 
Q 2469 1934 1863 1422 
Q 1356 997 1212 845 
Q 1069 694 975 541 
L 3222 541 
z
" transform="scale(0.015625)"/>
        <path id="ArialMT-35" d="M 266 1200 
L 856 1250 
Q 922 819 1161 601 
Q 1400 384 1738 384 
Q 2144 384 2425 690 
Q 2706 997 2706 1503 
Q 2706 1984 2436 2262 
Q 2166 2541 1728 2541 
Q 1456 2541 1237 2417 
Q 1019 2294 894 2097 
L 366 2166 
L 809 4519 
L 3088 4519 
L 3088 3981 
L 1259 3981 
L 1013 2750 
Q 1425 3038 1878 3038 
Q 2478 3038 2890 2622 
Q 3303 2206 3303 1553 
Q 3303 931 2941 478 
Q 2500 -78 1738 -78 
Q 1113 -78 717 272 
Q 322 622 266 1200 
z
" transform="scale(0.015625)"/>
       </defs>
       <use xlink:href="#ArialMT-32"/>
       <use xlink:href="#ArialMT-2e" x="55.615234"/>
       <use xlink:href="#ArialMT-35" x="83.398438"/>
      </g>
     </g>
    </g>
    <g id="xtick_3">
     <g id="line2d_3">
      <path d="M 249.778125 311.94 
L 249.778125 17.1 
" clip-path="url(#paace4cc7df)" style="fill: none; stroke: #ffffff; stroke-linecap: round"/>
     </g>
     <g id="text_3">
      <!-- 5.0 -->
      <g style="fill: #262626" transform="translate(242.133125 329.313594) scale(0.11 -0.11)">
       <use xlink:href="#ArialMT-35"/>
       <use xlink:href="#ArialMT-2e" x="55.615234"/>
       <use xlink:href="#ArialMT-30" x="83.398438"/>
      </g>
     </g>
    </g>
    <g id="xtick_4">
     <g id="line2d_4">
      <path d="M 348.207188 311.94 
L 348.207188 17.1 
" clip-path="url(#paace4cc7df)" style="fill: none; stroke: #ffffff; stroke-linecap: round"/>
     </g>
     <g id="text_4">
      <!-- 7.5 -->
      <g style="fill: #262626" transform="translate(340.562188 329.313594) scale(0.11 -0.11)">
       <defs>
        <path id="ArialMT-37" d="M 303 3981 
L 303 4522 
L 3269 4522 
L 3269 4084 
Q 2831 3619 2401 2847 
Q 1972 2075 1738 1259 
Q 1569 684 1522 0 
L 944 0 
Q 953 541 1156 1306 
Q 1359 2072 1739 2783 
Q 2119 3494 2547 3981 
L 303 3981 
z
" transform="scale(0.015625)"/>
       </defs>
       <use xlink:href="#ArialMT-37"/>
       <use xlink:href="#ArialMT-2e" x="55.615234"/>
       <use xlink:href="#ArialMT-35" x="83.398438"/>
      </g>
     </g>
    </g>
    <g id="xtick_5">
     <g id="line2d_5">
      <path d="M 446.63625 311.94 
L 446.63625 17.1 
" clip-path="url(#paace4cc7df)" style="fill: none; stroke: #ffffff; stroke-linecap: round"/>
     </g>
     <g id="text_5">
      <!-- 10.0 -->
      <g style="fill: #262626" transform="translate(435.932734 329.313594) scale(0.11 -0.11)">
       <defs>
        <path id="ArialMT-31" d="M 2384 0 
L 1822 0 
L 1822 3584 
Q 1619 3391 1289 3197 
Q 959 3003 697 2906 
L 697 3450 
Q 1169 3672 1522 3987 
Q 1875 4303 2022 4600 
L 2384 4600 
L 2384 0 
z
" transform="scale(0.015625)"/>
       </defs>
       <use xlink:href="#ArialMT-31"/>
       <use xlink:href="#ArialMT-30" x="55.615234"/>
       <use xlink:href="#ArialMT-2e" x="111.230469"/>
       <use xlink:href="#ArialMT-30" x="139.013672"/>
      </g>
     </g>
    </g>
    <g id="xtick_6">
     <g id="line2d_6">
      <path d="M 545.065313 311.94 
L 545.065313 17.1 
" clip-path="url(#paace4cc7df)" style="fill: none; stroke: #ffffff; stroke-linecap: round"/>
     </g>
     <g id="text_6">
      <!-- 12.5 -->
      <g style="fill: #262626" transform="translate(534.361797 329.313594) scale(0.11 -0.11)">
       <use xlink:href="#ArialMT-31"/>
       <use xlink:href="#ArialMT-32" x="55.615234"/>
       <use xlink:href="#ArialMT-2e" x="111.230469"/>
       <use xlink:href="#ArialMT-35" x="139.013672"/>
      </g>
     </g>
    </g>
    <g id="xtick_7">
     <g id="line2d_7">
      <path d="M 643.494375 311.94 
L 643.494375 17.1 
" clip-path="url(#paace4cc7df)" style="fill: none; stroke: #ffffff; stroke-linecap: round"/>
     </g>
     <g id="text_7">
      <!-- 15.0 -->
      <g style="fill: #262626" transform="translate(632.790859 329.313594) scale(0.11 -0.11)">
       <use xlink:href="#ArialMT-31"/>
       <use xlink:href="#ArialMT-35" x="55.615234"/>
       <use xlink:href="#ArialMT-2e" x="111.230469"/>
       <use xlink:href="#ArialMT-30" x="139.013672"/>
      </g>
     </g>
    </g>
    <g id="xtick_8">
     <g id="line2d_8">
      <path d="M 741.923437 311.94 
L 741.923437 17.1 
" clip-path="url(#paace4cc7df)" style="fill: none; stroke: #ffffff; stroke-linecap: round"/>
     </g>
     <g id="text_8">
      <!-- 17.5 -->
      <g style="fill: #262626" transform="translate(731.219922 329.313594) scale(0.11 -0.11)">
       <use xlink:href="#ArialMT-31"/>
       <use xlink:href="#ArialMT-37" x="55.615234"/>
       <use xlink:href="#ArialMT-2e" x="111.230469"/>
       <use xlink:href="#ArialMT-35" x="139.013672"/>
      </g>
     </g>
    </g>
    <g id="xtick_9">
     <g id="line2d_9">
      <path d="M 840.3525 311.94 
L 840.3525 17.1 
" clip-path="url(#paace4cc7df)" style="fill: none; stroke: #ffffff; stroke-linecap: round"/>
     </g>
     <g id="text_9">
      <!-- 20.0 -->
      <g style="fill: #262626" transform="translate(829.648984 329.313594) scale(0.11 -0.11)">
       <use xlink:href="#ArialMT-32"/>
       <use xlink:href="#ArialMT-30" x="55.615234"/>
       <use xlink:href="#ArialMT-2e" x="111.230469"/>
       <use xlink:href="#ArialMT-30" x="139.013672"/>
      </g>
     </g>
    </g>
    <g id="text_10">
     <!-- Radius -->
     <g style="fill: #262626" transform="translate(427.960313 344.089219) scale(0.12 -0.12)">
      <defs>
       <path id="ArialMT-52" d="M 503 0 
L 503 4581 
L 2534 4581 
Q 3147 4581 3465 4457 
Q 3784 4334 3975 4021 
Q 4166 3709 4166 3331 
Q 4166 2844 3850 2509 
Q 3534 2175 2875 2084 
Q 3116 1969 3241 1856 
Q 3506 1613 3744 1247 
L 4541 0 
L 3778 0 
L 3172 953 
Q 2906 1366 2734 1584 
Q 2563 1803 2427 1890 
Q 2291 1978 2150 2013 
Q 2047 2034 1813 2034 
L 1109 2034 
L 1109 0 
L 503 0 
z
M 1109 2559 
L 2413 2559 
Q 2828 2559 3062 2645 
Q 3297 2731 3419 2920 
Q 3541 3109 3541 3331 
Q 3541 3656 3305 3865 
Q 3069 4075 2559 4075 
L 1109 4075 
L 1109 2559 
z
" transform="scale(0.015625)"/>
       <path id="ArialMT-61" d="M 2588 409 
Q 2275 144 1986 34 
Q 1697 -75 1366 -75 
Q 819 -75 525 192 
Q 231 459 231 875 
Q 231 1119 342 1320 
Q 453 1522 633 1644 
Q 813 1766 1038 1828 
Q 1203 1872 1538 1913 
Q 2219 1994 2541 2106 
Q 2544 2222 2544 2253 
Q 2544 2597 2384 2738 
Q 2169 2928 1744 2928 
Q 1347 2928 1158 2789 
Q 969 2650 878 2297 
L 328 2372 
Q 403 2725 575 2942 
Q 747 3159 1072 3276 
Q 1397 3394 1825 3394 
Q 2250 3394 2515 3294 
Q 2781 3194 2906 3042 
Q 3031 2891 3081 2659 
Q 3109 2516 3109 2141 
L 3109 1391 
Q 3109 606 3145 398 
Q 3181 191 3288 0 
L 2700 0 
Q 2613 175 2588 409 
z
M 2541 1666 
Q 2234 1541 1622 1453 
Q 1275 1403 1131 1340 
Q 988 1278 909 1158 
Q 831 1038 831 891 
Q 831 666 1001 516 
Q 1172 366 1500 366 
Q 1825 366 2078 508 
Q 2331 650 2450 897 
Q 2541 1088 2541 1459 
L 2541 1666 
z
" transform="scale(0.015625)"/>
       <path id="ArialMT-64" d="M 2575 0 
L 2575 419 
Q 2259 -75 1647 -75 
Q 1250 -75 917 144 
Q 584 363 401 755 
Q 219 1147 219 1656 
Q 219 2153 384 2558 
Q 550 2963 881 3178 
Q 1213 3394 1622 3394 
Q 1922 3394 2156 3267 
Q 2391 3141 2538 2938 
L 2538 4581 
L 3097 4581 
L 3097 0 
L 2575 0 
z
M 797 1656 
Q 797 1019 1065 703 
Q 1334 388 1700 388 
Q 2069 388 2326 689 
Q 2584 991 2584 1609 
Q 2584 2291 2321 2609 
Q 2059 2928 1675 2928 
Q 1300 2928 1048 2622 
Q 797 2316 797 1656 
z
" transform="scale(0.015625)"/>
       <path id="ArialMT-69" d="M 425 3934 
L 425 4581 
L 988 4581 
L 988 3934 
L 425 3934 
z
M 425 0 
L 425 3319 
L 988 3319 
L 988 0 
L 425 0 
z
" transform="scale(0.015625)"/>
       <path id="ArialMT-75" d="M 2597 0 
L 2597 488 
Q 2209 -75 1544 -75 
Q 1250 -75 995 37 
Q 741 150 617 320 
Q 494 491 444 738 
Q 409 903 409 1263 
L 409 3319 
L 972 3319 
L 972 1478 
Q 972 1038 1006 884 
Q 1059 663 1231 536 
Q 1403 409 1656 409 
Q 1909 409 2131 539 
Q 2353 669 2445 892 
Q 2538 1116 2538 1541 
L 2538 3319 
L 3100 3319 
L 3100 0 
L 2597 0 
z
" transform="scale(0.015625)"/>
       <path id="ArialMT-73" d="M 197 991 
L 753 1078 
Q 800 744 1014 566 
Q 1228 388 1613 388 
Q 2000 388 2187 545 
Q 2375 703 2375 916 
Q 2375 1106 2209 1216 
Q 2094 1291 1634 1406 
Q 1016 1563 777 1677 
Q 538 1791 414 1992 
Q 291 2194 291 2438 
Q 291 2659 392 2848 
Q 494 3038 669 3163 
Q 800 3259 1026 3326 
Q 1253 3394 1513 3394 
Q 1903 3394 2198 3281 
Q 2494 3169 2634 2976 
Q 2775 2784 2828 2463 
L 2278 2388 
Q 2241 2644 2061 2787 
Q 1881 2931 1553 2931 
Q 1166 2931 1000 2803 
Q 834 2675 834 2503 
Q 834 2394 903 2306 
Q 972 2216 1119 2156 
Q 1203 2125 1616 2013 
Q 2213 1853 2448 1751 
Q 2684 1650 2818 1456 
Q 2953 1263 2953 975 
Q 2953 694 2789 445 
Q 2625 197 2315 61 
Q 2006 -75 1616 -75 
Q 969 -75 630 194 
Q 291 463 197 991 
z
" transform="scale(0.015625)"/>
      </defs>
      <use xlink:href="#ArialMT-52"/>
      <use xlink:href="#ArialMT-61" x="72.216797"/>
      <use xlink:href="#ArialMT-64" x="127.832031"/>
      <use xlink:href="#ArialMT-69" x="183.447266"/>
      <use xlink:href="#ArialMT-75" x="205.664062"/>
      <use xlink:href="#ArialMT-73" x="261.279297"/>
     </g>
    </g>
   </g>
   <g id="matplotlib.axis_2">
    <g id="ytick_1">
     <g id="line2d_10">
      <path d="M 52.92 311.94 
L 840.3525 311.94 
" clip-path="url(#paace4cc7df)" style="fill: none; stroke: #ffffff; stroke-linecap: round"/>
     </g>
     <g id="text_11">
      <!-- 0.0 -->
      <g style="fill: #262626" transform="translate(28.13 315.876797) scale(0.11 -0.11)">
       <use xlink:href="#ArialMT-30"/>
       <use xlink:href="#ArialMT-2e" x="55.615234"/>
       <use xlink:href="#ArialMT-30" x="83.398438"/>
      </g>
     </g>
    </g>
    <g id="ytick_2">
     <g id="line2d_11">
      <path d="M 52.92 252.972 
L 840.3525 252.972 
" clip-path="url(#paace4cc7df)" style="fill: none; stroke: #ffffff; stroke-linecap: round"/>
     </g>
     <g id="text_12">
      <!-- 0.2 -->
      <g style="fill: #262626" transform="translate(28.13 256.908797) scale(0.11 -0.11)">
       <use xlink:href="#ArialMT-30"/>
       <use xlink:href="#ArialMT-2e" x="55.615234"/>
       <use xlink:href="#ArialMT-32" x="83.398438"/>
      </g>
     </g>
    </g>
    <g id="ytick_3">
     <g id="line2d_12">
      <path d="M 52.92 194.004 
L 840.3525 194.004 
" clip-path="url(#paace4cc7df)" style="fill: none; stroke: #ffffff; stroke-linecap: round"/>
     </g>
     <g id="text_13">
      <!-- 0.4 -->
      <g style="fill: #262626" transform="translate(28.13 197.940797) scale(0.11 -0.11)">
       <defs>
        <path id="ArialMT-34" d="M 2069 0 
L 2069 1097 
L 81 1097 
L 81 1613 
L 2172 4581 
L 2631 4581 
L 2631 1613 
L 3250 1613 
L 3250 1097 
L 2631 1097 
L 2631 0 
L 2069 0 
z
M 2069 1613 
L 2069 3678 
L 634 1613 
L 2069 1613 
z
" transform="scale(0.015625)"/>
       </defs>
       <use xlink:href="#ArialMT-30"/>
       <use xlink:href="#ArialMT-2e" x="55.615234"/>
       <use xlink:href="#ArialMT-34" x="83.398438"/>
      </g>
     </g>
    </g>
    <g id="ytick_4">
     <g id="line2d_13">
      <path d="M 52.92 135.036 
L 840.3525 135.036 
" clip-path="url(#paace4cc7df)" style="fill: none; stroke: #ffffff; stroke-linecap: round"/>
     </g>
     <g id="text_14">
      <!-- 0.6 -->
      <g style="fill: #262626" transform="translate(28.13 138.972797) scale(0.11 -0.11)">
       <defs>
        <path id="ArialMT-36" d="M 3184 3459 
L 2625 3416 
Q 2550 3747 2413 3897 
Q 2184 4138 1850 4138 
Q 1581 4138 1378 3988 
Q 1113 3794 959 3422 
Q 806 3050 800 2363 
Q 1003 2672 1297 2822 
Q 1591 2972 1913 2972 
Q 2475 2972 2870 2558 
Q 3266 2144 3266 1488 
Q 3266 1056 3080 686 
Q 2894 316 2569 119 
Q 2244 -78 1831 -78 
Q 1128 -78 684 439 
Q 241 956 241 2144 
Q 241 3472 731 4075 
Q 1159 4600 1884 4600 
Q 2425 4600 2770 4297 
Q 3116 3994 3184 3459 
z
M 888 1484 
Q 888 1194 1011 928 
Q 1134 663 1356 523 
Q 1578 384 1822 384 
Q 2178 384 2434 671 
Q 2691 959 2691 1453 
Q 2691 1928 2437 2201 
Q 2184 2475 1800 2475 
Q 1419 2475 1153 2201 
Q 888 1928 888 1484 
z
" transform="scale(0.015625)"/>
       </defs>
       <use xlink:href="#ArialMT-30"/>
       <use xlink:href="#ArialMT-2e" x="55.615234"/>
       <use xlink:href="#ArialMT-36" x="83.398438"/>
      </g>
     </g>
    </g>
    <g id="ytick_5">
     <g id="line2d_14">
      <path d="M 52.92 76.068 
L 840.3525 76.068 
" clip-path="url(#paace4cc7df)" style="fill: none; stroke: #ffffff; stroke-linecap: round"/>
     </g>
     <g id="text_15">
      <!-- 0.8 -->
      <g style="fill: #262626" transform="translate(28.13 80.004797) scale(0.11 -0.11)">
       <defs>
        <path id="ArialMT-38" d="M 1131 2484 
Q 781 2613 612 2850 
Q 444 3088 444 3419 
Q 444 3919 803 4259 
Q 1163 4600 1759 4600 
Q 2359 4600 2725 4251 
Q 3091 3903 3091 3403 
Q 3091 3084 2923 2848 
Q 2756 2613 2416 2484 
Q 2838 2347 3058 2040 
Q 3278 1734 3278 1309 
Q 3278 722 2862 322 
Q 2447 -78 1769 -78 
Q 1091 -78 675 323 
Q 259 725 259 1325 
Q 259 1772 486 2073 
Q 713 2375 1131 2484 
z
M 1019 3438 
Q 1019 3113 1228 2906 
Q 1438 2700 1772 2700 
Q 2097 2700 2305 2904 
Q 2513 3109 2513 3406 
Q 2513 3716 2298 3927 
Q 2084 4138 1766 4138 
Q 1444 4138 1231 3931 
Q 1019 3725 1019 3438 
z
M 838 1322 
Q 838 1081 952 856 
Q 1066 631 1291 507 
Q 1516 384 1775 384 
Q 2178 384 2440 643 
Q 2703 903 2703 1303 
Q 2703 1709 2433 1975 
Q 2163 2241 1756 2241 
Q 1359 2241 1098 1978 
Q 838 1716 838 1322 
z
" transform="scale(0.015625)"/>
       </defs>
       <use xlink:href="#ArialMT-30"/>
       <use xlink:href="#ArialMT-2e" x="55.615234"/>
       <use xlink:href="#ArialMT-38" x="83.398438"/>
      </g>
     </g>
    </g>
    <g id="ytick_6">
     <g id="line2d_15">
      <path d="M 52.92 17.1 
L 840.3525 17.1 
" clip-path="url(#paace4cc7df)" style="fill: none; stroke: #ffffff; stroke-linecap: round"/>
     </g>
     <g id="text_16">
      <!-- 1.0 -->
      <g style="fill: #262626" transform="translate(28.13 21.036797) scale(0.11 -0.11)">
       <use xlink:href="#ArialMT-31"/>
       <use xlink:href="#ArialMT-2e" x="55.615234"/>
       <use xlink:href="#ArialMT-30" x="83.398438"/>
      </g>
     </g>
    </g>
    <g id="text_17">
     <!-- Count -->
     <g style="fill: #262626" transform="translate(21.745 180.529688) rotate(-90) scale(0.12 -0.12)">
      <defs>
       <path id="ArialMT-43" d="M 3763 1606 
L 4369 1453 
Q 4178 706 3683 314 
Q 3188 -78 2472 -78 
Q 1731 -78 1267 223 
Q 803 525 561 1097 
Q 319 1669 319 2325 
Q 319 3041 592 3573 
Q 866 4106 1370 4382 
Q 1875 4659 2481 4659 
Q 3169 4659 3637 4309 
Q 4106 3959 4291 3325 
L 3694 3184 
Q 3534 3684 3231 3912 
Q 2928 4141 2469 4141 
Q 1941 4141 1586 3887 
Q 1231 3634 1087 3207 
Q 944 2781 944 2328 
Q 944 1744 1114 1308 
Q 1284 872 1643 656 
Q 2003 441 2422 441 
Q 2931 441 3284 734 
Q 3638 1028 3763 1606 
z
" transform="scale(0.015625)"/>
       <path id="ArialMT-6f" d="M 213 1659 
Q 213 2581 725 3025 
Q 1153 3394 1769 3394 
Q 2453 3394 2887 2945 
Q 3322 2497 3322 1706 
Q 3322 1066 3130 698 
Q 2938 331 2570 128 
Q 2203 -75 1769 -75 
Q 1072 -75 642 372 
Q 213 819 213 1659 
z
M 791 1659 
Q 791 1022 1069 705 
Q 1347 388 1769 388 
Q 2188 388 2466 706 
Q 2744 1025 2744 1678 
Q 2744 2294 2464 2611 
Q 2184 2928 1769 2928 
Q 1347 2928 1069 2612 
Q 791 2297 791 1659 
z
" transform="scale(0.015625)"/>
       <path id="ArialMT-6e" d="M 422 0 
L 422 3319 
L 928 3319 
L 928 2847 
Q 1294 3394 1984 3394 
Q 2284 3394 2536 3286 
Q 2788 3178 2913 3003 
Q 3038 2828 3088 2588 
Q 3119 2431 3119 2041 
L 3119 0 
L 2556 0 
L 2556 2019 
Q 2556 2363 2490 2533 
Q 2425 2703 2258 2804 
Q 2091 2906 1866 2906 
Q 1506 2906 1245 2678 
Q 984 2450 984 1813 
L 984 0 
L 422 0 
z
" transform="scale(0.015625)"/>
       <path id="ArialMT-74" d="M 1650 503 
L 1731 6 
Q 1494 -44 1306 -44 
Q 1000 -44 831 53 
Q 663 150 594 308 
Q 525 466 525 972 
L 525 2881 
L 113 2881 
L 113 3319 
L 525 3319 
L 525 4141 
L 1084 4478 
L 1084 3319 
L 1650 3319 
L 1650 2881 
L 1084 2881 
L 1084 941 
Q 1084 700 1114 631 
Q 1144 563 1211 522 
Q 1278 481 1403 481 
Q 1497 481 1650 503 
z
" transform="scale(0.015625)"/>
      </defs>
      <use xlink:href="#ArialMT-43"/>
      <use xlink:href="#ArialMT-6f" x="72.216797"/>
      <use xlink:href="#ArialMT-75" x="127.832031"/>
      <use xlink:href="#ArialMT-6e" x="183.447266"/>
      <use xlink:href="#ArialMT-74" x="239.0625"/>
     </g>
    </g>
   </g>
   <g id="patch_3">
    <path d="M 111.184312 311.94 
L 128.183872 311.94 
L 128.183872 -124700.22 
L 111.184312 -124700.22 
z
" clip-path="url(#paace4cc7df)" style="fill: #0000ff; fill-opacity: 0.6; stroke: #ffffff; stroke-linejoin: miter"/>
   </g>
   <g id="patch_4">
    <path d="M 128.183872 311.94 
L 145.183432 311.94 
L 145.183432 -45093.42 
L 128.183872 -45093.42 
z
" clip-path="url(#paace4cc7df)" style="fill: #0000ff; fill-opacity: 0.6; stroke: #ffffff; stroke-linejoin: miter"/>
   </g>
   <g id="patch_5">
    <path d="M 145.183432 311.94 
L 162.182992 311.94 
L 162.182992 -19147.5 
L 145.183432 -19147.5 
z
" clip-path="url(#paace4cc7df)" style="fill: #0000ff; fill-opacity: 0.6; stroke: #ffffff; stroke-linejoin: miter"/>
   </g>
   <g id="patch_6">
    <path d="M 162.182992 311.94 
L 179.182552 311.94 
L 179.182552 -13840.38 
L 162.182992 -13840.38 
z
" clip-path="url(#paace4cc7df)" style="fill: #0000ff; fill-opacity: 0.6; stroke: #ffffff; stroke-linejoin: miter"/>
   </g>
   <g id="patch_7">
    <path d="M 179.182552 311.94 
L 196.182113 311.94 
L 196.182113 -19442.34 
L 179.182552 -19442.34 
z
" clip-path="url(#paace4cc7df)" style="fill: #0000ff; fill-opacity: 0.6; stroke: #ffffff; stroke-linejoin: miter"/>
   </g>
   <g id="patch_8">
    <path d="M 196.182113 311.94 
L 213.181673 311.94 
L 213.181673 -6469.38 
L 196.182113 -6469.38 
z
" clip-path="url(#paace4cc7df)" style="fill: #0000ff; fill-opacity: 0.6; stroke: #ffffff; stroke-linejoin: miter"/>
   </g>
   <g id="patch_9">
    <path d="M 213.181673 311.94 
L 230.181233 311.94 
L 230.181233 -7353.9 
L 213.181673 -7353.9 
z
" clip-path="url(#paace4cc7df)" style="fill: #0000ff; fill-opacity: 0.6; stroke: #ffffff; stroke-linejoin: miter"/>
   </g>
   <g id="patch_10">
    <path d="M 230.181233 311.94 
L 247.180793 311.94 
L 247.180793 -6469.38 
L 230.181233 -6469.38 
z
" clip-path="url(#paace4cc7df)" style="fill: #0000ff; fill-opacity: 0.6; stroke: #ffffff; stroke-linejoin: miter"/>
   </g>
   <g id="patch_11">
    <path d="M 247.180793 311.94 
L 264.180353 311.94 
L 264.180353 -4995.18 
L 247.180793 -4995.18 
z
" clip-path="url(#paace4cc7df)" style="fill: #0000ff; fill-opacity: 0.6; stroke: #ffffff; stroke-linejoin: miter"/>
   </g>
   <g id="patch_12">
    <path d="M 264.180353 311.94 
L 281.179913 311.94 
L 281.179913 -4995.18 
L 264.180353 -4995.18 
z
" clip-path="url(#paace4cc7df)" style="fill: #0000ff; fill-opacity: 0.6; stroke: #ffffff; stroke-linejoin: miter"/>
   </g>
   <g id="patch_13">
    <path d="M 281.179913 311.94 
L 298.179473 311.94 
L 298.179473 -2636.46 
L 281.179913 -2636.46 
z
" clip-path="url(#paace4cc7df)" style="fill: #0000ff; fill-opacity: 0.6; stroke: #ffffff; stroke-linejoin: miter"/>
   </g>
   <g id="patch_14">
    <path d="M 298.179473 311.94 
L 315.179033 311.94 
L 315.179033 -3815.82 
L 298.179473 -3815.82 
z
" clip-path="url(#paace4cc7df)" style="fill: #0000ff; fill-opacity: 0.6; stroke: #ffffff; stroke-linejoin: miter"/>
   </g>
   <g id="patch_15">
    <path d="M 315.179033 311.94 
L 332.178593 311.94 
L 332.178593 -1162.26 
L 315.179033 -1162.26 
z
" clip-path="url(#paace4cc7df)" style="fill: #0000ff; fill-opacity: 0.6; stroke: #ffffff; stroke-linejoin: miter"/>
   </g>
   <g id="patch_16">
    <path d="M 332.178593 311.94 
L 349.178154 311.94 
L 349.178154 -3226.14 
L 332.178593 -3226.14 
z
" clip-path="url(#paace4cc7df)" style="fill: #0000ff; fill-opacity: 0.6; stroke: #ffffff; stroke-linejoin: miter"/>
   </g>
   <g id="patch_17">
    <path d="M 349.178154 311.94 
L 366.177714 311.94 
L 366.177714 -1457.1 
L 349.178154 -1457.1 
z
" clip-path="url(#paace4cc7df)" style="fill: #0000ff; fill-opacity: 0.6; stroke: #ffffff; stroke-linejoin: miter"/>
   </g>
   <g id="patch_18">
    <path d="M 366.177714 311.94 
L 383.177274 311.94 
L 383.177274 -2046.78 
L 366.177714 -2046.78 
z
" clip-path="url(#paace4cc7df)" style="fill: #0000ff; fill-opacity: 0.6; stroke: #ffffff; stroke-linejoin: miter"/>
   </g>
   <g id="patch_19">
    <path d="M 383.177274 311.94 
L 400.176834 311.94 
L 400.176834 -2341.62 
L 383.177274 -2341.62 
z
" clip-path="url(#paace4cc7df)" style="fill: #0000ff; fill-opacity: 0.6; stroke: #ffffff; stroke-linejoin: miter"/>
   </g>
   <g id="patch_20">
    <path d="M 400.176834 311.94 
L 417.176394 311.94 
L 417.176394 -867.42 
L 400.176834 -867.42 
z
" clip-path="url(#paace4cc7df)" style="fill: #0000ff; fill-opacity: 0.6; stroke: #ffffff; stroke-linejoin: miter"/>
   </g>
   <g id="patch_21">
    <path d="M 417.176394 311.94 
L 434.175954 311.94 
L 434.175954 -867.42 
L 417.176394 -867.42 
z
" clip-path="url(#paace4cc7df)" style="fill: #0000ff; fill-opacity: 0.6; stroke: #ffffff; stroke-linejoin: miter"/>
   </g>
   <g id="patch_22">
    <path d="M 434.175954 311.94 
L 451.175514 311.94 
L 451.175514 -1751.94 
L 434.175954 -1751.94 
z
" clip-path="url(#paace4cc7df)" style="fill: #0000ff; fill-opacity: 0.6; stroke: #ffffff; stroke-linejoin: miter"/>
   </g>
   <g id="patch_23">
    <path d="M 451.175514 311.94 
L 468.175074 311.94 
L 468.175074 17.1 
L 451.175514 17.1 
z
" clip-path="url(#paace4cc7df)" style="fill: #0000ff; fill-opacity: 0.6; stroke: #ffffff; stroke-linejoin: miter"/>
   </g>
   <g id="patch_24">
    <path d="M 468.175074 311.94 
L 485.174634 311.94 
L 485.174634 -867.42 
L 468.175074 -867.42 
z
" clip-path="url(#paace4cc7df)" style="fill: #0000ff; fill-opacity: 0.6; stroke: #ffffff; stroke-linejoin: miter"/>
   </g>
   <g id="patch_25">
    <path d="M 485.174634 311.94 
L 502.174195 311.94 
L 502.174195 -572.58 
L 485.174634 -572.58 
z
" clip-path="url(#paace4cc7df)" style="fill: #0000ff; fill-opacity: 0.6; stroke: #ffffff; stroke-linejoin: miter"/>
   </g>
   <g id="patch_26">
    <path d="M 502.174195 311.94 
L 519.173755 311.94 
L 519.173755 -572.58 
L 502.174195 -572.58 
z
" clip-path="url(#paace4cc7df)" style="fill: #0000ff; fill-opacity: 0.6; stroke: #ffffff; stroke-linejoin: miter"/>
   </g>
   <g id="patch_27">
    <path d="M 519.173755 311.94 
L 536.173315 311.94 
L 536.173315 311.94 
L 519.173755 311.94 
z
" clip-path="url(#paace4cc7df)" style="fill: #0000ff; fill-opacity: 0.6; stroke: #ffffff; stroke-linejoin: miter"/>
   </g>
   <g id="patch_28">
    <path d="M 536.173315 311.94 
L 553.172875 311.94 
L 553.172875 -277.74 
L 536.173315 -277.74 
z
" clip-path="url(#paace4cc7df)" style="fill: #0000ff; fill-opacity: 0.6; stroke: #ffffff; stroke-linejoin: miter"/>
   </g>
   <g id="patch_29">
    <path d="M 553.172875 311.94 
L 570.172435 311.94 
L 570.172435 -277.74 
L 553.172875 -277.74 
z
" clip-path="url(#paace4cc7df)" style="fill: #0000ff; fill-opacity: 0.6; stroke: #ffffff; stroke-linejoin: miter"/>
   </g>
   <g id="patch_30">
    <path d="M 570.172435 311.94 
L 587.171995 311.94 
L 587.171995 -1457.1 
L 570.172435 -1457.1 
z
" clip-path="url(#paace4cc7df)" style="fill: #0000ff; fill-opacity: 0.6; stroke: #ffffff; stroke-linejoin: miter"/>
   </g>
   <g id="patch_31">
    <path d="M 587.171995 311.94 
L 604.171555 311.94 
L 604.171555 -277.74 
L 587.171995 -277.74 
z
" clip-path="url(#paace4cc7df)" style="fill: #0000ff; fill-opacity: 0.6; stroke: #ffffff; stroke-linejoin: miter"/>
   </g>
   <g id="patch_32">
    <path d="M 604.171555 311.94 
L 621.171115 311.94 
L 621.171115 -277.74 
L 604.171555 -277.74 
z
" clip-path="url(#paace4cc7df)" style="fill: #0000ff; fill-opacity: 0.6; stroke: #ffffff; stroke-linejoin: miter"/>
   </g>
   <g id="patch_33">
    <path d="M 621.171115 311.94 
L 638.170675 311.94 
L 638.170675 17.1 
L 621.171115 17.1 
z
" clip-path="url(#paace4cc7df)" style="fill: #0000ff; fill-opacity: 0.6; stroke: #ffffff; stroke-linejoin: miter"/>
   </g>
   <g id="patch_34">
    <path d="M 638.170675 311.94 
L 655.170236 311.94 
L 655.170236 17.1 
L 638.170675 17.1 
z
" clip-path="url(#paace4cc7df)" style="fill: #0000ff; fill-opacity: 0.6; stroke: #ffffff; stroke-linejoin: miter"/>
   </g>
   <g id="patch_35">
    <path d="M 655.170236 311.94 
L 672.169796 311.94 
L 672.169796 311.94 
L 655.170236 311.94 
z
" clip-path="url(#paace4cc7df)" style="fill: #0000ff; fill-opacity: 0.6; stroke: #ffffff; stroke-linejoin: miter"/>
   </g>
   <g id="patch_36">
    <path d="M 672.169796 311.94 
L 689.169356 311.94 
L 689.169356 17.1 
L 672.169796 17.1 
z
" clip-path="url(#paace4cc7df)" style="fill: #0000ff; fill-opacity: 0.6; stroke: #ffffff; stroke-linejoin: miter"/>
   </g>
   <g id="patch_37">
    <path d="M 689.169356 311.94 
L 706.168916 311.94 
L 706.168916 17.1 
L 689.169356 17.1 
z
" clip-path="url(#paace4cc7df)" style="fill: #0000ff; fill-opacity: 0.6; stroke: #ffffff; stroke-linejoin: miter"/>
   </g>
   <g id="patch_38">
    <path d="M 706.168916 311.94 
L 723.168476 311.94 
L 723.168476 311.94 
L 706.168916 311.94 
z
" clip-path="url(#paace4cc7df)" style="fill: #0000ff; fill-opacity: 0.6; stroke: #ffffff; stroke-linejoin: miter"/>
   </g>
   <g id="patch_39">
    <path d="M 723.168476 311.94 
L 740.168036 311.94 
L 740.168036 311.94 
L 723.168476 311.94 
z
" clip-path="url(#paace4cc7df)" style="fill: #0000ff; fill-opacity: 0.6; stroke: #ffffff; stroke-linejoin: miter"/>
   </g>
   <g id="patch_40">
    <path d="M 740.168036 311.94 
L 757.167596 311.94 
L 757.167596 311.94 
L 740.168036 311.94 
z
" clip-path="url(#paace4cc7df)" style="fill: #0000ff; fill-opacity: 0.6; stroke: #ffffff; stroke-linejoin: miter"/>
   </g>
   <g id="patch_41">
    <path d="M 757.167596 311.94 
L 774.167156 311.94 
L 774.167156 311.94 
L 757.167596 311.94 
z
" clip-path="url(#paace4cc7df)" style="fill: #0000ff; fill-opacity: 0.6; stroke: #ffffff; stroke-linejoin: miter"/>
   </g>
   <g id="patch_42">
    <path d="M 774.167156 311.94 
L 791.166716 311.94 
L 791.166716 311.94 
L 774.167156 311.94 
z
" clip-path="url(#paace4cc7df)" style="fill: #0000ff; fill-opacity: 0.6; stroke: #ffffff; stroke-linejoin: miter"/>
   </g>
   <g id="patch_43">
    <path d="M 791.166716 311.94 
L 808.166277 311.94 
L 808.166277 -277.74 
L 791.166716 -277.74 
z
" clip-path="url(#paace4cc7df)" style="fill: #0000ff; fill-opacity: 0.6; stroke: #ffffff; stroke-linejoin: miter"/>
   </g>
   <g id="patch_44">
    <path d="M 808.166277 311.94 
L 825.165837 311.94 
L 825.165837 311.94 
L 808.166277 311.94 
z
" clip-path="url(#paace4cc7df)" style="fill: #0000ff; fill-opacity: 0.6; stroke: #ffffff; stroke-linejoin: miter"/>
   </g>
   <g id="patch_45">
    <path d="M 825.165837 311.94 
L 842.165397 311.94 
L 842.165397 311.94 
L 825.165837 311.94 
z
" clip-path="url(#paace4cc7df)" style="fill: #0000ff; fill-opacity: 0.6; stroke: #ffffff; stroke-linejoin: miter"/>
   </g>
   <g id="patch_46">
    <path d="M 842.165397 311.94 
L 859.164957 311.94 
L 859.164957 311.94 
L 842.165397 311.94 
z
" clip-path="url(#paace4cc7df)" style="fill: #0000ff; fill-opacity: 0.6; stroke: #ffffff; stroke-linejoin: miter"/>
   </g>
   <g id="patch_47">
    <path d="M 859.164957 311.94 
L 876.164517 311.94 
L 876.164517 311.94 
L 859.164957 311.94 
z
" clip-path="url(#paace4cc7df)" style="fill: #0000ff; fill-opacity: 0.6; stroke: #ffffff; stroke-linejoin: miter"/>
   </g>
   <g id="patch_48">
    <path d="M 876.164517 311.94 
L 893.164077 311.94 
L 893.164077 -277.74 
L 876.164517 -277.74 
z
" clip-path="url(#paace4cc7df)" style="fill: #0000ff; fill-opacity: 0.6; stroke: #ffffff; stroke-linejoin: miter"/>
   </g>
   <g id="patch_49">
    <path d="M 893.164077 311.94 
L 910.163637 311.94 
L 910.163637 311.94 
L 893.164077 311.94 
z
" clip-path="url(#paace4cc7df)" style="fill: #0000ff; fill-opacity: 0.6; stroke: #ffffff; stroke-linejoin: miter"/>
   </g>
   <g id="patch_50">
    <path d="M 910.163637 311.94 
L 927.163197 311.94 
L 927.163197 311.94 
L 910.163637 311.94 
z
" clip-path="url(#paace4cc7df)" style="fill: #0000ff; fill-opacity: 0.6; stroke: #ffffff; stroke-linejoin: miter"/>
   </g>
   <g id="patch_51">
    <path d="M 927.163197 311.94 
L 944.162757 311.94 
L 944.162757 311.94 
L 927.163197 311.94 
z
" clip-path="url(#paace4cc7df)" style="fill: #0000ff; fill-opacity: 0.6; stroke: #ffffff; stroke-linejoin: miter"/>
   </g>
   <g id="patch_52">
    <path d="M 944.162757 311.94 
L 961.162318 311.94 
L 961.162318 17.1 
L 944.162757 17.1 
z
" clip-path="url(#paace4cc7df)" style="fill: #0000ff; fill-opacity: 0.6; stroke: #ffffff; stroke-linejoin: miter"/>
   </g>
   <g id="patch_53">
    <path d="M 111.184312 311.94 
L 172.933102 311.94 
L 172.933102 -223176.78 
L 111.184312 -223176.78 
z
" clip-path="url(#paace4cc7df)" style="fill: #808000; fill-opacity: 0.3; stroke: #ffffff; stroke-linejoin: miter"/>
   </g>
   <g id="patch_54">
    <path d="M 172.933102 311.94 
L 234.681893 311.94 
L 234.681893 -40965.66 
L 172.933102 -40965.66 
z
" clip-path="url(#paace4cc7df)" style="fill: #808000; fill-opacity: 0.3; stroke: #ffffff; stroke-linejoin: miter"/>
   </g>
   <g id="patch_55">
    <path d="M 234.681893 311.94 
L 296.430683 311.94 
L 296.430683 -21211.38 
L 234.681893 -21211.38 
z
" clip-path="url(#paace4cc7df)" style="fill: #808000; fill-opacity: 0.3; stroke: #ffffff; stroke-linejoin: miter"/>
   </g>
   <g id="patch_56">
    <path d="M 296.430683 311.94 
L 358.179473 311.94 
L 358.179473 -13250.7 
L 296.430683 -13250.7 
z
" clip-path="url(#paace4cc7df)" style="fill: #808000; fill-opacity: 0.3; stroke: #ffffff; stroke-linejoin: miter"/>
   </g>
   <g id="patch_57">
    <path d="M 358.179473 311.94 
L 419.928264 311.94 
L 419.928264 -6469.38 
L 358.179473 -6469.38 
z
" clip-path="url(#paace4cc7df)" style="fill: #808000; fill-opacity: 0.3; stroke: #ffffff; stroke-linejoin: miter"/>
   </g>
   <g id="patch_58">
    <path d="M 419.928264 311.94 
L 481.677054 311.94 
L 481.677054 -2931.3 
L 419.928264 -2931.3 
z
" clip-path="url(#paace4cc7df)" style="fill: #808000; fill-opacity: 0.3; stroke: #ffffff; stroke-linejoin: miter"/>
   </g>
   <g id="patch_59">
    <path d="M 481.677054 311.94 
L 543.425845 311.94 
L 543.425845 -3226.14 
L 481.677054 -3226.14 
z
" clip-path="url(#paace4cc7df)" style="fill: #808000; fill-opacity: 0.3; stroke: #ffffff; stroke-linejoin: miter"/>
   </g>
   <g id="patch_60">
    <path d="M 543.425845 311.94 
L 605.174635 311.94 
L 605.174635 -1751.94 
L 543.425845 -1751.94 
z
" clip-path="url(#paace4cc7df)" style="fill: #808000; fill-opacity: 0.3; stroke: #ffffff; stroke-linejoin: miter"/>
   </g>
   <g id="patch_61">
    <path d="M 605.174635 311.94 
L 666.923425 311.94 
L 666.923425 -1457.1 
L 605.174635 -1457.1 
z
" clip-path="url(#paace4cc7df)" style="fill: #808000; fill-opacity: 0.3; stroke: #ffffff; stroke-linejoin: miter"/>
   </g>
   <g id="patch_62">
    <path d="M 666.923425 311.94 
L 728.672216 311.94 
L 728.672216 -867.42 
L 666.923425 -867.42 
z
" clip-path="url(#paace4cc7df)" style="fill: #808000; fill-opacity: 0.3; stroke: #ffffff; stroke-linejoin: miter"/>
   </g>
   <g id="patch_63">
    <path d="M 728.672216 311.94 
L 790.421006 311.94 
L 790.421006 -2046.78 
L 728.672216 -2046.78 
z
" clip-path="url(#paace4cc7df)" style="fill: #808000; fill-opacity: 0.3; stroke: #ffffff; stroke-linejoin: miter"/>
   </g>
   <g id="patch_64">
    <path d="M 790.421006 311.94 
L 852.169796 311.94 
L 852.169796 17.1 
L 790.421006 17.1 
z
" clip-path="url(#paace4cc7df)" style="fill: #808000; fill-opacity: 0.3; stroke: #ffffff; stroke-linejoin: miter"/>
   </g>
   <g id="patch_65">
    <path d="M 852.169796 311.94 
L 913.918587 311.94 
L 913.918587 -1162.26 
L 852.169796 -1162.26 
z
" clip-path="url(#paace4cc7df)" style="fill: #808000; fill-opacity: 0.3; stroke: #ffffff; stroke-linejoin: miter"/>
   </g>
   <g id="patch_66">
    <path d="M 913.918587 311.94 
L 975.667377 311.94 
L 975.667377 -277.74 
L 913.918587 -277.74 
z
" clip-path="url(#paace4cc7df)" style="fill: #808000; fill-opacity: 0.3; stroke: #ffffff; stroke-linejoin: miter"/>
   </g>
   <g id="patch_67">
    <path d="M 975.667377 311.94 
L 1037.416167 311.94 
L 1037.416167 17.1 
L 975.667377 17.1 
z
" clip-path="url(#paace4cc7df)" style="fill: #808000; fill-opacity: 0.3; stroke: #ffffff; stroke-linejoin: miter"/>
   </g>
   <g id="patch_68">
    <path d="M 1037.416167 311.94 
L 1099.164958 311.94 
L 1099.164958 -277.74 
L 1037.416167 -277.74 
z
" clip-path="url(#paace4cc7df)" style="fill: #808000; fill-opacity: 0.3; stroke: #ffffff; stroke-linejoin: miter"/>
   </g>
   <g id="patch_69">
    <path d="M 1099.164958 311.94 
L 1160.913748 311.94 
L 1160.913748 -572.58 
L 1099.164958 -572.58 
z
" clip-path="url(#paace4cc7df)" style="fill: #808000; fill-opacity: 0.3; stroke: #ffffff; stroke-linejoin: miter"/>
   </g>
   <g id="patch_70">
    <path d="M 1160.913748 311.94 
L 1222.662538 311.94 
L 1222.662538 -277.74 
L 1160.913748 -277.74 
z
" clip-path="url(#paace4cc7df)" style="fill: #808000; fill-opacity: 0.3; stroke: #ffffff; stroke-linejoin: miter"/>
   </g>
   <g id="patch_71">
    <path d="M 1222.662538 311.94 
L 1284.411329 311.94 
L 1284.411329 311.94 
L 1222.662538 311.94 
z
" clip-path="url(#paace4cc7df)" style="fill: #808000; fill-opacity: 0.3; stroke: #ffffff; stroke-linejoin: miter"/>
   </g>
   <g id="patch_72">
    <path d="M 1284.411329 311.94 
L 1346.160119 311.94 
L 1346.160119 311.94 
L 1284.411329 311.94 
z
" clip-path="url(#paace4cc7df)" style="fill: #808000; fill-opacity: 0.3; stroke: #ffffff; stroke-linejoin: miter"/>
   </g>
   <g id="patch_73">
    <path d="M 1346.160119 311.94 
L 1407.90891 311.94 
L 1407.90891 -572.58 
L 1346.160119 -572.58 
z
" clip-path="url(#paace4cc7df)" style="fill: #808000; fill-opacity: 0.3; stroke: #ffffff; stroke-linejoin: miter"/>
   </g>
   <g id="patch_74">
    <path d="M 1407.90891 311.94 
L 1469.6577 311.94 
L 1469.6577 311.94 
L 1407.90891 311.94 
z
" clip-path="url(#paace4cc7df)" style="fill: #808000; fill-opacity: 0.3; stroke: #ffffff; stroke-linejoin: miter"/>
   </g>
   <g id="patch_75">
    <path d="M 1469.6577 311.94 
L 1531.40649 311.94 
L 1531.40649 311.94 
L 1469.6577 311.94 
z
" clip-path="url(#paace4cc7df)" style="fill: #808000; fill-opacity: 0.3; stroke: #ffffff; stroke-linejoin: miter"/>
   </g>
   <g id="patch_76">
    <path d="M 1531.40649 311.94 
L 1593.155281 311.94 
L 1593.155281 311.94 
L 1531.40649 311.94 
z
" clip-path="url(#paace4cc7df)" style="fill: #808000; fill-opacity: 0.3; stroke: #ffffff; stroke-linejoin: miter"/>
   </g>
   <g id="patch_77">
    <path d="M 1593.155281 311.94 
L 1654.904071 311.94 
L 1654.904071 17.1 
L 1593.155281 17.1 
z
" clip-path="url(#paace4cc7df)" style="fill: #808000; fill-opacity: 0.3; stroke: #ffffff; stroke-linejoin: miter"/>
   </g>
   <g id="patch_78">
    <path d="M 1654.904071 311.94 
L 1716.652861 311.94 
L 1716.652861 311.94 
L 1654.904071 311.94 
z
" clip-path="url(#paace4cc7df)" style="fill: #808000; fill-opacity: 0.3; stroke: #ffffff; stroke-linejoin: miter"/>
   </g>
   <g id="patch_79">
    <path d="M 1716.652861 311.94 
L 1778.401652 311.94 
L 1778.401652 311.94 
L 1716.652861 311.94 
z
" clip-path="url(#paace4cc7df)" style="fill: #808000; fill-opacity: 0.3; stroke: #ffffff; stroke-linejoin: miter"/>
   </g>
   <g id="patch_80">
    <path d="M 1778.401652 311.94 
L 1840.150442 311.94 
L 1840.150442 -277.74 
L 1778.401652 -277.74 
z
" clip-path="url(#paace4cc7df)" style="fill: #808000; fill-opacity: 0.3; stroke: #ffffff; stroke-linejoin: miter"/>
   </g>
   <g id="patch_81">
    <path d="M 1840.150442 311.94 
L 1901.899232 311.94 
L 1901.899232 311.94 
L 1840.150442 311.94 
z
" clip-path="url(#paace4cc7df)" style="fill: #808000; fill-opacity: 0.3; stroke: #ffffff; stroke-linejoin: miter"/>
   </g>
   <g id="patch_82">
    <path d="M 1901.899232 311.94 
L 1963.648023 311.94 
L 1963.648023 311.94 
L 1901.899232 311.94 
z
" clip-path="url(#paace4cc7df)" style="fill: #808000; fill-opacity: 0.3; stroke: #ffffff; stroke-linejoin: miter"/>
   </g>
   <g id="patch_83">
    <path d="M 1963.648023 311.94 
L 2025.396813 311.94 
L 2025.396813 311.94 
L 1963.648023 311.94 
z
" clip-path="url(#paace4cc7df)" style="fill: #808000; fill-opacity: 0.3; stroke: #ffffff; stroke-linejoin: miter"/>
   </g>
   <g id="patch_84">
    <path d="M 2025.396813 311.94 
L 2087.145604 311.94 
L 2087.145604 311.94 
L 2025.396813 311.94 
z
" clip-path="url(#paace4cc7df)" style="fill: #808000; fill-opacity: 0.3; stroke: #ffffff; stroke-linejoin: miter"/>
   </g>
   <g id="patch_85">
    <path d="M 2087.145604 311.94 
L 2148.894394 311.94 
L 2148.894394 311.94 
L 2087.145604 311.94 
z
" clip-path="url(#paace4cc7df)" style="fill: #808000; fill-opacity: 0.3; stroke: #ffffff; stroke-linejoin: miter"/>
   </g>
   <g id="patch_86">
    <path d="M 2148.894394 311.94 
L 2210.643184 311.94 
L 2210.643184 311.94 
L 2148.894394 311.94 
z
" clip-path="url(#paace4cc7df)" style="fill: #808000; fill-opacity: 0.3; stroke: #ffffff; stroke-linejoin: miter"/>
   </g>
   <g id="patch_87">
    <path d="M 2210.643184 311.94 
L 2272.391975 311.94 
L 2272.391975 17.1 
L 2210.643184 17.1 
z
" clip-path="url(#paace4cc7df)" style="fill: #808000; fill-opacity: 0.3; stroke: #ffffff; stroke-linejoin: miter"/>
   </g>
   <g id="patch_88">
    <path d="M 2272.391975 311.94 
L 2334.140765 311.94 
L 2334.140765 311.94 
L 2272.391975 311.94 
z
" clip-path="url(#paace4cc7df)" style="fill: #808000; fill-opacity: 0.3; stroke: #ffffff; stroke-linejoin: miter"/>
   </g>
   <g id="patch_89">
    <path d="M 2334.140765 311.94 
L 2395.889555 311.94 
L 2395.889555 17.1 
L 2334.140765 17.1 
z
" clip-path="url(#paace4cc7df)" style="fill: #808000; fill-opacity: 0.3; stroke: #ffffff; stroke-linejoin: miter"/>
   </g>
   <g id="patch_90">
    <path d="M 2395.889555 311.94 
L 2457.638346 311.94 
L 2457.638346 311.94 
L 2395.889555 311.94 
z
" clip-path="url(#paace4cc7df)" style="fill: #808000; fill-opacity: 0.3; stroke: #ffffff; stroke-linejoin: miter"/>
   </g>
   <g id="patch_91">
    <path d="M 2457.638346 311.94 
L 2519.387136 311.94 
L 2519.387136 311.94 
L 2457.638346 311.94 
z
" clip-path="url(#paace4cc7df)" style="fill: #808000; fill-opacity: 0.3; stroke: #ffffff; stroke-linejoin: miter"/>
   </g>
   <g id="patch_92">
    <path d="M 2519.387136 311.94 
L 2581.135926 311.94 
L 2581.135926 311.94 
L 2519.387136 311.94 
z
" clip-path="url(#paace4cc7df)" style="fill: #808000; fill-opacity: 0.3; stroke: #ffffff; stroke-linejoin: miter"/>
   </g>
   <g id="patch_93">
    <path d="M 2581.135926 311.94 
L 2642.884717 311.94 
L 2642.884717 311.94 
L 2581.135926 311.94 
z
" clip-path="url(#paace4cc7df)" style="fill: #808000; fill-opacity: 0.3; stroke: #ffffff; stroke-linejoin: miter"/>
   </g>
   <g id="patch_94">
    <path d="M 2642.884717 311.94 
L 2704.633507 311.94 
L 2704.633507 311.94 
L 2642.884717 311.94 
z
" clip-path="url(#paace4cc7df)" style="fill: #808000; fill-opacity: 0.3; stroke: #ffffff; stroke-linejoin: miter"/>
   </g>
   <g id="patch_95">
    <path d="M 2704.633507 311.94 
L 2766.382297 311.94 
L 2766.382297 17.1 
L 2704.633507 17.1 
z
" clip-path="url(#paace4cc7df)" style="fill: #808000; fill-opacity: 0.3; stroke: #ffffff; stroke-linejoin: miter"/>
   </g>
   <g id="patch_96">
    <path d="M 2766.382297 311.94 
L 2828.131088 311.94 
L 2828.131088 311.94 
L 2766.382297 311.94 
z
" clip-path="url(#paace4cc7df)" style="fill: #808000; fill-opacity: 0.3; stroke: #ffffff; stroke-linejoin: miter"/>
   </g>
   <g id="patch_97">
    <path d="M 2828.131088 311.94 
L 2889.879878 311.94 
L 2889.879878 311.94 
L 2828.131088 311.94 
z
" clip-path="url(#paace4cc7df)" style="fill: #808000; fill-opacity: 0.3; stroke: #ffffff; stroke-linejoin: miter"/>
   </g>
   <g id="patch_98">
    <path d="M 2889.879878 311.94 
L 2951.628669 311.94 
L 2951.628669 311.94 
L 2889.879878 311.94 
z
" clip-path="url(#paace4cc7df)" style="fill: #808000; fill-opacity: 0.3; stroke: #ffffff; stroke-linejoin: miter"/>
   </g>
   <g id="patch_99">
    <path d="M 2951.628669 311.94 
L 3013.377459 311.94 
L 3013.377459 311.94 
L 2951.628669 311.94 
z
" clip-path="url(#paace4cc7df)" style="fill: #808000; fill-opacity: 0.3; stroke: #ffffff; stroke-linejoin: miter"/>
   </g>
   <g id="patch_100">
    <path d="M 3013.377459 311.94 
L 3075.126249 311.94 
L 3075.126249 311.94 
L 3013.377459 311.94 
z
" clip-path="url(#paace4cc7df)" style="fill: #808000; fill-opacity: 0.3; stroke: #ffffff; stroke-linejoin: miter"/>
   </g>
   <g id="patch_101">
    <path d="M 3075.126249 311.94 
L 3136.87504 311.94 
L 3136.87504 311.94 
L 3075.126249 311.94 
z
" clip-path="url(#paace4cc7df)" style="fill: #808000; fill-opacity: 0.3; stroke: #ffffff; stroke-linejoin: miter"/>
   </g>
   <g id="patch_102">
    <path d="M 3136.87504 311.94 
L 3198.62383 311.94 
L 3198.62383 17.1 
L 3136.87504 17.1 
z
" clip-path="url(#paace4cc7df)" style="fill: #808000; fill-opacity: 0.3; stroke: #ffffff; stroke-linejoin: miter"/>
   </g>
   <g id="patch_103">
    <path d="M 111.184312 311.94 
L 151.64399 311.94 
L 151.64399 -194282.46 
L 111.184312 -194282.46 
z
" clip-path="url(#paace4cc7df)" style="fill: #ff0000; fill-opacity: 0.2; stroke: #ffffff; stroke-width: 0.797713; stroke-linejoin: miter"/>
   </g>
   <g id="patch_104">
    <path d="M 151.64399 311.94 
L 192.103668 311.94 
L 192.103668 -58950.9 
L 151.64399 -58950.9 
z
" clip-path="url(#paace4cc7df)" style="fill: #ff0000; fill-opacity: 0.2; stroke: #ffffff; stroke-width: 0.797713; stroke-linejoin: miter"/>
   </g>
   <g id="patch_105">
    <path d="M 192.103668 311.94 
L 232.563346 311.94 
L 232.563346 -28582.38 
L 192.103668 -28582.38 
z
" clip-path="url(#paace4cc7df)" style="fill: #ff0000; fill-opacity: 0.2; stroke: #ffffff; stroke-width: 0.797713; stroke-linejoin: miter"/>
   </g>
   <g id="patch_106">
    <path d="M 232.563346 311.94 
L 273.023024 311.94 
L 273.023024 -15019.74 
L 232.563346 -15019.74 
z
" clip-path="url(#paace4cc7df)" style="fill: #ff0000; fill-opacity: 0.2; stroke: #ffffff; stroke-width: 0.797713; stroke-linejoin: miter"/>
   </g>
   <g id="patch_107">
    <path d="M 273.023024 311.94 
L 313.482702 311.94 
L 313.482702 -7648.74 
L 273.023024 -7648.74 
z
" clip-path="url(#paace4cc7df)" style="fill: #ff0000; fill-opacity: 0.2; stroke: #ffffff; stroke-width: 0.797713; stroke-linejoin: miter"/>
   </g>
   <g id="patch_108">
    <path d="M 313.482702 311.94 
L 353.94238 311.94 
L 353.94238 -9122.94 
L 313.482702 -9122.94 
z
" clip-path="url(#paace4cc7df)" style="fill: #ff0000; fill-opacity: 0.2; stroke: #ffffff; stroke-width: 0.797713; stroke-linejoin: miter"/>
   </g>
   <g id="patch_109">
    <path d="M 353.94238 311.94 
L 394.402059 311.94 
L 394.402059 -7943.58 
L 353.94238 -7943.58 
z
" clip-path="url(#paace4cc7df)" style="fill: #ff0000; fill-opacity: 0.2; stroke: #ffffff; stroke-width: 0.797713; stroke-linejoin: miter"/>
   </g>
   <g id="patch_110">
    <path d="M 394.402059 311.94 
L 434.861737 311.94 
L 434.861737 -4405.5 
L 394.402059 -4405.5 
z
" clip-path="url(#paace4cc7df)" style="fill: #ff0000; fill-opacity: 0.2; stroke: #ffffff; stroke-width: 0.797713; stroke-linejoin: miter"/>
   </g>
   <g id="patch_111">
    <path d="M 434.861737 311.94 
L 475.321415 311.94 
L 475.321415 -2931.3 
L 434.861737 -2931.3 
z
" clip-path="url(#paace4cc7df)" style="fill: #ff0000; fill-opacity: 0.2; stroke: #ffffff; stroke-width: 0.797713; stroke-linejoin: miter"/>
   </g>
   <g id="patch_112">
    <path d="M 475.321415 311.94 
L 515.781093 311.94 
L 515.781093 -2931.3 
L 475.321415 -2931.3 
z
" clip-path="url(#paace4cc7df)" style="fill: #ff0000; fill-opacity: 0.2; stroke: #ffffff; stroke-width: 0.797713; stroke-linejoin: miter"/>
   </g>
   <g id="patch_113">
    <path d="M 515.781093 311.94 
L 556.240771 311.94 
L 556.240771 -1457.1 
L 515.781093 -1457.1 
z
" clip-path="url(#paace4cc7df)" style="fill: #ff0000; fill-opacity: 0.2; stroke: #ffffff; stroke-width: 0.797713; stroke-linejoin: miter"/>
   </g>
   <g id="patch_114">
    <path d="M 556.240771 311.94 
L 596.700449 311.94 
L 596.700449 -867.42 
L 556.240771 -867.42 
z
" clip-path="url(#paace4cc7df)" style="fill: #ff0000; fill-opacity: 0.2; stroke: #ffffff; stroke-width: 0.797713; stroke-linejoin: miter"/>
   </g>
   <g id="patch_115">
    <path d="M 596.700449 311.94 
L 637.160127 311.94 
L 637.160127 -2636.46 
L 596.700449 -2636.46 
z
" clip-path="url(#paace4cc7df)" style="fill: #ff0000; fill-opacity: 0.2; stroke: #ffffff; stroke-width: 0.797713; stroke-linejoin: miter"/>
   </g>
   <g id="patch_116">
    <path d="M 637.160127 311.94 
L 677.619805 311.94 
L 677.619805 -572.58 
L 637.160127 -572.58 
z
" clip-path="url(#paace4cc7df)" style="fill: #ff0000; fill-opacity: 0.2; stroke: #ffffff; stroke-width: 0.797713; stroke-linejoin: miter"/>
   </g>
   <g id="patch_117">
    <path d="M 677.619805 311.94 
L 718.079483 311.94 
L 718.079483 -277.74 
L 677.619805 -277.74 
z
" clip-path="url(#paace4cc7df)" style="fill: #ff0000; fill-opacity: 0.2; stroke: #ffffff; stroke-width: 0.797713; stroke-linejoin: miter"/>
   </g>
   <g id="patch_118">
    <path d="M 718.079483 311.94 
L 758.539161 311.94 
L 758.539161 -572.58 
L 718.079483 -572.58 
z
" clip-path="url(#paace4cc7df)" style="fill: #ff0000; fill-opacity: 0.2; stroke: #ffffff; stroke-width: 0.797713; stroke-linejoin: miter"/>
   </g>
   <g id="patch_119">
    <path d="M 758.539161 311.94 
L 798.998839 311.94 
L 798.998839 -572.58 
L 758.539161 -572.58 
z
" clip-path="url(#paace4cc7df)" style="fill: #ff0000; fill-opacity: 0.2; stroke: #ffffff; stroke-width: 0.797713; stroke-linejoin: miter"/>
   </g>
   <g id="patch_120">
    <path d="M 798.998839 311.94 
L 839.458517 311.94 
L 839.458517 -572.58 
L 798.998839 -572.58 
z
" clip-path="url(#paace4cc7df)" style="fill: #ff0000; fill-opacity: 0.2; stroke: #ffffff; stroke-width: 0.797713; stroke-linejoin: miter"/>
   </g>
   <g id="patch_121">
    <path d="M 839.458517 311.94 
L 879.918196 311.94 
L 879.918196 311.94 
L 839.458517 311.94 
z
" clip-path="url(#paace4cc7df)" style="fill: #ff0000; fill-opacity: 0.2; stroke: #ffffff; stroke-width: 0.797713; stroke-linejoin: miter"/>
   </g>
   <g id="patch_122">
    <path d="M 879.918196 311.94 
L 920.377874 311.94 
L 920.377874 -277.74 
L 879.918196 -277.74 
z
" clip-path="url(#paace4cc7df)" style="fill: #ff0000; fill-opacity: 0.2; stroke: #ffffff; stroke-width: 0.797713; stroke-linejoin: miter"/>
   </g>
   <g id="patch_123">
    <path d="M 920.377874 311.94 
L 960.837552 311.94 
L 960.837552 -277.74 
L 920.377874 -277.74 
z
" clip-path="url(#paace4cc7df)" style="fill: #ff0000; fill-opacity: 0.2; stroke: #ffffff; stroke-width: 0.797713; stroke-linejoin: miter"/>
   </g>
   <g id="patch_124">
    <path d="M 960.837552 311.94 
L 1001.29723 311.94 
L 1001.29723 -572.58 
L 960.837552 -572.58 
z
" clip-path="url(#paace4cc7df)" style="fill: #ff0000; fill-opacity: 0.2; stroke: #ffffff; stroke-width: 0.797713; stroke-linejoin: miter"/>
   </g>
   <g id="patch_125">
    <path d="M 1001.29723 311.94 
L 1041.756908 311.94 
L 1041.756908 -277.74 
L 1001.29723 -277.74 
z
" clip-path="url(#paace4cc7df)" style="fill: #ff0000; fill-opacity: 0.2; stroke: #ffffff; stroke-width: 0.797713; stroke-linejoin: miter"/>
   </g>
   <g id="patch_126">
    <path d="M 1041.756908 311.94 
L 1082.216586 311.94 
L 1082.216586 -572.58 
L 1041.756908 -572.58 
z
" clip-path="url(#paace4cc7df)" style="fill: #ff0000; fill-opacity: 0.2; stroke: #ffffff; stroke-width: 0.797713; stroke-linejoin: miter"/>
   </g>
   <g id="patch_127">
    <path d="M 1082.216586 311.94 
L 1122.676264 311.94 
L 1122.676264 311.94 
L 1082.216586 311.94 
z
" clip-path="url(#paace4cc7df)" style="fill: #ff0000; fill-opacity: 0.2; stroke: #ffffff; stroke-width: 0.797713; stroke-linejoin: miter"/>
   </g>
   <g id="patch_128">
    <path d="M 1122.676264 311.94 
L 1163.135942 311.94 
L 1163.135942 17.1 
L 1122.676264 17.1 
z
" clip-path="url(#paace4cc7df)" style="fill: #ff0000; fill-opacity: 0.2; stroke: #ffffff; stroke-width: 0.797713; stroke-linejoin: miter"/>
   </g>
   <g id="patch_129">
    <path d="M 1163.135942 311.94 
L 1203.59562 311.94 
L 1203.59562 17.1 
L 1163.135942 17.1 
z
" clip-path="url(#paace4cc7df)" style="fill: #ff0000; fill-opacity: 0.2; stroke: #ffffff; stroke-width: 0.797713; stroke-linejoin: miter"/>
   </g>
   <g id="patch_130">
    <path d="M 1203.59562 311.94 
L 1244.055298 311.94 
L 1244.055298 311.94 
L 1203.59562 311.94 
z
" clip-path="url(#paace4cc7df)" style="fill: #ff0000; fill-opacity: 0.2; stroke: #ffffff; stroke-width: 0.797713; stroke-linejoin: miter"/>
   </g>
   <g id="patch_131">
    <path d="M 1244.055298 311.94 
L 1284.514976 311.94 
L 1284.514976 17.1 
L 1244.055298 17.1 
z
" clip-path="url(#paace4cc7df)" style="fill: #ff0000; fill-opacity: 0.2; stroke: #ffffff; stroke-width: 0.797713; stroke-linejoin: miter"/>
   </g>
   <g id="patch_132">
    <path d="M 1284.514976 311.94 
L 1324.974654 311.94 
L 1324.974654 311.94 
L 1284.514976 311.94 
z
" clip-path="url(#paace4cc7df)" style="fill: #ff0000; fill-opacity: 0.2; stroke: #ffffff; stroke-width: 0.797713; stroke-linejoin: miter"/>
   </g>
   <g id="patch_133">
    <path d="M 1324.974654 311.94 
L 1365.434332 311.94 
L 1365.434332 311.94 
L 1324.974654 311.94 
z
" clip-path="url(#paace4cc7df)" style="fill: #ff0000; fill-opacity: 0.2; stroke: #ffffff; stroke-width: 0.797713; stroke-linejoin: miter"/>
   </g>
   <g id="patch_134">
    <path d="M 1365.434332 311.94 
L 1405.894011 311.94 
L 1405.894011 17.1 
L 1365.434332 17.1 
z
" clip-path="url(#paace4cc7df)" style="fill: #ff0000; fill-opacity: 0.2; stroke: #ffffff; stroke-width: 0.797713; stroke-linejoin: miter"/>
   </g>
   <g id="patch_135">
    <path d="M 1405.894011 311.94 
L 1446.353689 311.94 
L 1446.353689 17.1 
L 1405.894011 17.1 
z
" clip-path="url(#paace4cc7df)" style="fill: #ff0000; fill-opacity: 0.2; stroke: #ffffff; stroke-width: 0.797713; stroke-linejoin: miter"/>
   </g>
   <g id="patch_136">
    <path d="M 1446.353689 311.94 
L 1486.813367 311.94 
L 1486.813367 -277.74 
L 1446.353689 -277.74 
z
" clip-path="url(#paace4cc7df)" style="fill: #ff0000; fill-opacity: 0.2; stroke: #ffffff; stroke-width: 0.797713; stroke-linejoin: miter"/>
   </g>
   <g id="patch_137">
    <path d="M 1486.813367 311.94 
L 1527.273045 311.94 
L 1527.273045 311.94 
L 1486.813367 311.94 
z
" clip-path="url(#paace4cc7df)" style="fill: #ff0000; fill-opacity: 0.2; stroke: #ffffff; stroke-width: 0.797713; stroke-linejoin: miter"/>
   </g>
   <g id="patch_138">
    <path d="M 1527.273045 311.94 
L 1567.732723 311.94 
L 1567.732723 311.94 
L 1527.273045 311.94 
z
" clip-path="url(#paace4cc7df)" style="fill: #ff0000; fill-opacity: 0.2; stroke: #ffffff; stroke-width: 0.797713; stroke-linejoin: miter"/>
   </g>
   <g id="patch_139">
    <path d="M 1567.732723 311.94 
L 1608.192401 311.94 
L 1608.192401 311.94 
L 1567.732723 311.94 
z
" clip-path="url(#paace4cc7df)" style="fill: #ff0000; fill-opacity: 0.2; stroke: #ffffff; stroke-width: 0.797713; stroke-linejoin: miter"/>
   </g>
   <g id="patch_140">
    <path d="M 1608.192401 311.94 
L 1648.652079 311.94 
L 1648.652079 311.94 
L 1608.192401 311.94 
z
" clip-path="url(#paace4cc7df)" style="fill: #ff0000; fill-opacity: 0.2; stroke: #ffffff; stroke-width: 0.797713; stroke-linejoin: miter"/>
   </g>
   <g id="patch_141">
    <path d="M 1648.652079 311.94 
L 1689.111757 311.94 
L 1689.111757 311.94 
L 1648.652079 311.94 
z
" clip-path="url(#paace4cc7df)" style="fill: #ff0000; fill-opacity: 0.2; stroke: #ffffff; stroke-width: 0.797713; stroke-linejoin: miter"/>
   </g>
   <g id="patch_142">
    <path d="M 1689.111757 311.94 
L 1729.571435 311.94 
L 1729.571435 311.94 
L 1689.111757 311.94 
z
" clip-path="url(#paace4cc7df)" style="fill: #ff0000; fill-opacity: 0.2; stroke: #ffffff; stroke-width: 0.797713; stroke-linejoin: miter"/>
   </g>
   <g id="patch_143">
    <path d="M 1729.571435 311.94 
L 1770.031113 311.94 
L 1770.031113 311.94 
L 1729.571435 311.94 
z
" clip-path="url(#paace4cc7df)" style="fill: #ff0000; fill-opacity: 0.2; stroke: #ffffff; stroke-width: 0.797713; stroke-linejoin: miter"/>
   </g>
   <g id="patch_144">
    <path d="M 1770.031113 311.94 
L 1810.490791 311.94 
L 1810.490791 311.94 
L 1770.031113 311.94 
z
" clip-path="url(#paace4cc7df)" style="fill: #ff0000; fill-opacity: 0.2; stroke: #ffffff; stroke-width: 0.797713; stroke-linejoin: miter"/>
   </g>
   <g id="patch_145">
    <path d="M 1810.490791 311.94 
L 1850.950469 311.94 
L 1850.950469 311.94 
L 1810.490791 311.94 
z
" clip-path="url(#paace4cc7df)" style="fill: #ff0000; fill-opacity: 0.2; stroke: #ffffff; stroke-width: 0.797713; stroke-linejoin: miter"/>
   </g>
   <g id="patch_146">
    <path d="M 1850.950469 311.94 
L 1891.410148 311.94 
L 1891.410148 311.94 
L 1850.950469 311.94 
z
" clip-path="url(#paace4cc7df)" style="fill: #ff0000; fill-opacity: 0.2; stroke: #ffffff; stroke-width: 0.797713; stroke-linejoin: miter"/>
   </g>
   <g id="patch_147">
    <path d="M 1891.410148 311.94 
L 1931.869826 311.94 
L 1931.869826 311.94 
L 1891.410148 311.94 
z
" clip-path="url(#paace4cc7df)" style="fill: #ff0000; fill-opacity: 0.2; stroke: #ffffff; stroke-width: 0.797713; stroke-linejoin: miter"/>
   </g>
   <g id="patch_148">
    <path d="M 1931.869826 311.94 
L 1972.329504 311.94 
L 1972.329504 311.94 
L 1931.869826 311.94 
z
" clip-path="url(#paace4cc7df)" style="fill: #ff0000; fill-opacity: 0.2; stroke: #ffffff; stroke-width: 0.797713; stroke-linejoin: miter"/>
   </g>
   <g id="patch_149">
    <path d="M 1972.329504 311.94 
L 2012.789182 311.94 
L 2012.789182 311.94 
L 1972.329504 311.94 
z
" clip-path="url(#paace4cc7df)" style="fill: #ff0000; fill-opacity: 0.2; stroke: #ffffff; stroke-width: 0.797713; stroke-linejoin: miter"/>
   </g>
   <g id="patch_150">
    <path d="M 2012.789182 311.94 
L 2053.24886 311.94 
L 2053.24886 311.94 
L 2012.789182 311.94 
z
" clip-path="url(#paace4cc7df)" style="fill: #ff0000; fill-opacity: 0.2; stroke: #ffffff; stroke-width: 0.797713; stroke-linejoin: miter"/>
   </g>
   <g id="patch_151">
    <path d="M 2053.24886 311.94 
L 2093.708538 311.94 
L 2093.708538 311.94 
L 2053.24886 311.94 
z
" clip-path="url(#paace4cc7df)" style="fill: #ff0000; fill-opacity: 0.2; stroke: #ffffff; stroke-width: 0.797713; stroke-linejoin: miter"/>
   </g>
   <g id="patch_152">
    <path d="M 2093.708538 311.94 
L 2134.168216 311.94 
L 2134.168216 17.1 
L 2093.708538 17.1 
z
" clip-path="url(#paace4cc7df)" style="fill: #ff0000; fill-opacity: 0.2; stroke: #ffffff; stroke-width: 0.797713; stroke-linejoin: miter"/>
   </g>
   <g id="line2d_16">
    <path d="M 647.072439 -1 
L 649.361341 13.666037 
L 653.632587 37.25686 
L 657.903833 57.2563 
L 662.175079 74.045916 
L 666.446326 88.16629 
L 670.717572 100.266107 
L 674.988818 111.041423 
L 683.531311 131.254144 
L 687.802557 141.758825 
L 692.073803 152.984105 
L 696.34505 165.042235 
L 700.616296 177.860462 
L 713.430035 217.888809 
L 717.701281 230.280975 
L 721.972527 241.373801 
L 726.243773 250.704908 
L 730.51502 257.87659 
L 734.786266 262.576799 
L 739.057512 264.594545 
L 743.328758 263.832016 
L 747.600005 260.315153 
L 751.871251 254.203069 
L 756.142497 245.794939 
L 760.413743 235.531377 
L 764.68499 223.986428 
L 773.227482 199.874099 
L 777.498728 188.856517 
L 781.769975 179.543144 
L 786.041221 172.577478 
L 790.312467 168.432374 
L 794.583713 167.357508 
L 798.85496 169.347004 
L 803.126206 174.132583 
L 807.397452 181.203984 
L 811.668699 189.854541 
L 820.211191 208.488317 
L 824.482437 216.715687 
L 828.753684 223.16791 
L 833.02493 227.253351 
L 837.296176 228.598939 
L 841.567422 227.080694 
L 845.838669 222.833644 
L 850.109915 216.24056 
L 854.381161 207.899982 
L 865 184.90148 
L 865 184.90148 
" clip-path="url(#paace4cc7df)" style="fill: none; stroke: #0000ff; stroke-width: 1.5; stroke-linecap: round"/>
   </g>
   <g id="line2d_17">
    <path d="M 0 0 
" clip-path="url(#paace4cc7df)" style="fill: none; stroke: #808000; stroke-width: 1.5; stroke-linecap: round"/>
   </g>
   <g id="line2d_18">
    <path d="M 0 0 
" clip-path="url(#paace4cc7df)" style="fill: none; stroke: #ff0000; stroke-width: 1.5; stroke-linecap: round"/>
   </g>
   <g id="patch_153">
    <path d="M 52.92 311.94 
L 52.92 17.1 
" style="fill: none; stroke: #ffffff; stroke-width: 1.25; stroke-linejoin: miter; stroke-linecap: square"/>
   </g>
   <g id="patch_154">
    <path d="M 840.3525 311.94 
L 840.3525 17.1 
" style="fill: none; stroke: #ffffff; stroke-width: 1.25; stroke-linejoin: miter; stroke-linecap: square"/>
   </g>
   <g id="patch_155">
    <path d="M 52.92 311.94 
L 840.3525 311.94 
" style="fill: none; stroke: #ffffff; stroke-width: 1.25; stroke-linejoin: miter; stroke-linecap: square"/>
   </g>
   <g id="patch_156">
    <path d="M 52.92 17.1 
L 840.3525 17.1 
" style="fill: none; stroke: #ffffff; stroke-width: 1.25; stroke-linejoin: miter; stroke-linecap: square"/>
   </g>
   <g id="legend_1">
    <g id="patch_157">
     <path d="M 60.62 72.579531 
L 135.686406 72.579531 
Q 137.886406 72.579531 137.886406 70.379531 
L 137.886406 24.8 
Q 137.886406 22.6 135.686406 22.6 
L 60.62 22.6 
Q 58.42 22.6 58.42 24.8 
L 58.42 70.379531 
Q 58.42 72.579531 60.62 72.579531 
z
" style="fill: #eaeaf2; opacity: 0.8; stroke: #cccccc; stroke-linejoin: miter"/>
    </g>
    <g id="line2d_19">
     <path d="M 62.82 31.023594 
L 73.82 31.023594 
L 84.82 31.023594 
" style="fill: none; stroke: #0000ff; stroke-width: 1.5; stroke-linecap: round"/>
    </g>
    <g id="text_18">
     <!-- 1550 C -->
     <g style="fill: #262626" transform="translate(93.62 34.873594) scale(0.11 -0.11)">
      <defs>
       <path id="ArialMT-20" transform="scale(0.015625)"/>
       <path id="ArialMT-b0" d="M 400 3794 
Q 400 4153 654 4406 
Q 909 4659 1266 4659 
Q 1628 4659 1881 4406 
Q 2134 4153 2134 3794 
Q 2134 3434 1879 3179 
Q 1625 2925 1266 2925 
Q 909 2925 654 3178 
Q 400 3431 400 3794 
z
M 741 3794 
Q 741 3575 895 3420 
Q 1050 3266 1269 3266 
Q 1484 3266 1639 3420 
Q 1794 3575 1794 3794 
Q 1794 4013 1639 4167 
Q 1484 4322 1269 4322 
Q 1050 4322 895 4167 
Q 741 4013 741 3794 
z
" transform="scale(0.015625)"/>
      </defs>
      <use xlink:href="#ArialMT-31"/>
      <use xlink:href="#ArialMT-35" x="55.615234"/>
      <use xlink:href="#ArialMT-35" x="111.230469"/>
      <use xlink:href="#ArialMT-30" x="166.845703"/>
      <use xlink:href="#ArialMT-20" x="222.460938"/>
      <use xlink:href="#ArialMT-b0" x="250.244141"/>
      <use xlink:href="#ArialMT-43" x="290.234375"/>
     </g>
    </g>
    <g id="line2d_20">
     <path d="M 62.82 46.583438 
L 73.82 46.583438 
L 84.82 46.583438 
" style="fill: none; stroke: #808000; stroke-width: 1.5; stroke-linecap: round"/>
    </g>
    <g id="text_19">
     <!-- 1600 C -->
     <g style="fill: #262626" transform="translate(93.62 50.433438) scale(0.11 -0.11)">
      <use xlink:href="#ArialMT-31"/>
      <use xlink:href="#ArialMT-36" x="55.615234"/>
      <use xlink:href="#ArialMT-30" x="111.230469"/>
      <use xlink:href="#ArialMT-30" x="166.845703"/>
      <use xlink:href="#ArialMT-20" x="222.460938"/>
      <use xlink:href="#ArialMT-b0" x="250.244141"/>
      <use xlink:href="#ArialMT-43" x="290.234375"/>
     </g>
    </g>
    <g id="line2d_21">
     <path d="M 62.82 62.143281 
L 73.82 62.143281 
L 84.82 62.143281 
" style="fill: none; stroke: #ff0000; stroke-width: 1.5; stroke-linecap: round"/>
    </g>
    <g id="text_20">
     <!-- 1650 C -->
     <g style="fill: #262626" transform="translate(93.62 65.993281) scale(0.11 -0.11)">
      <use xlink:href="#ArialMT-31"/>
      <use xlink:href="#ArialMT-36" x="55.615234"/>
      <use xlink:href="#ArialMT-35" x="111.230469"/>
      <use xlink:href="#ArialMT-30" x="166.845703"/>
      <use xlink:href="#ArialMT-20" x="222.460938"/>
      <use xlink:href="#ArialMT-b0" x="250.244141"/>
      <use xlink:href="#ArialMT-43" x="290.234375"/>
     </g>
    </g>
   </g>
  </g>
 </g>
 <defs>
  <clipPath id="paace4cc7df">
   <rect x="52.92" y="17.1" width="787.4325" height="294.84"/>
  </clipPath>
 </defs>
</svg>
